<svg viewBox="0 0 62 77" fill="none" xmlns="http://www.w3.org/2000/svg"><path d="M26.25 20.17c-4.76 2.88-9.04 10.26-2.42 13.95 2.76 1.53 8 .2 9.64-2.61 1.87-3.23-.32-9.5-3.28-11.39-4.01-2.54-8.42 2.12-11.29 4.29" stroke="#404040" stroke-width="3" stroke-linecap="round"/><path d="M42.68 66.25c-15.5-5.7-35.08-20.1-36.8-38.15-.98-10.35 5.16-17.45 14.3-21.16 7.38-2.98 13.87-2.69 19.67 3.12 6.4 6.42 10.05 15.2 9.12 24.3-1.03 9.95-5.54 18.6-7.61 28.16-.85 3.92-1.73 4.3-2.2 8.17" stroke="#404040" stroke-width="3" stroke-linecap="round"/></svg>