<svg viewBox="0 0 69 65" fill="none" xmlns="http://www.w3.org/2000/svg"><path d="M41.2 36.2c2.7-.82 5.71-1.34 8.2-2.69 1.97-1.06 3.68-2.5 5.41-3.9 1.35-1.1 3.08-2.08 4.04-3.56a6.86 6.86 0 0 0 1.28-4.44c-.09-1.9-.72-3.74-1.26-5.55-.55-1.85-.93-3.93-1.78-5.67-.66-1.36-2.32-.62-3.41-.29l-12.16 3.65c-6.95 2.08-13.88 4.23-20.84 6.24-3.44.99-7.01 1.35-10.44 2.38-1.73.52-4.24.81-5.66 1.98-1.56 1.29-.9 3.47-.43 5.12.7 2.4 1.48 4.85 2.44 7.15.56 1.33.89 3.15 1.91 4.23.5.54 1.21.6 1.91.66 1.67.11 3.35-.03 5.01-.19 4.3-.4 8.58-.63 12.84-1.33.55-.1 3.53-.55 3.72-1.2.16-.55.06-1.06.3-1.62.35-.8 1.46-1 2.22-1.23l3.43-1.03c.77-.23 1.45-.44 2.13.11.5.4.6 1.39.77 1.97l.69 2.28c.12.42.43.85-.01 1.13-.85.54-1.81.93-2.73 1.32-1.15.48-2.49.88-3.71 1.11-.6.11-1.65.2-2.13-.25-1.05-.97-.77-2.77-1.15-4.02" stroke="#404040" stroke-width="3" stroke-linecap="round"/><path d="M22.5 19.15c-.9-2.99-2.62-6.77.4-9.17a8.66 8.66 0 0 1 3.73-1.5c2.06-.45 4.04-.86 6.14-1.1 1.01-.1 1.79-.32 2.6.42a8.25 8.25 0 0 1 2.18 3.13l.85 2.84M11.72 42.16c1 1.53 1 3.6 1.87 5.21.92 1.71 1.38 3.6 1.94 5.46.43 1.46.75 3.04 1.46 4.4.54 1.01.8 2.12 1.47 3.08.4.56.9 1.3 1.59 1.53.87.3 2.3-.14 3.14-.34 1.71-.42 3.39-1 5.07-1.5l19.5-5.85c4.14-1.24 8.18-2.71 12.3-3.99 1.1-.33 2.16-.78 3.26-1.12.62-.2 1.59-.29 2.05-.8.86-.94.1-2.74-.26-3.75-1.27-3.62-2.86-7.06-3.96-10.73l-2.22-7.42" stroke="#404040" stroke-width="3" stroke-linecap="round"/></svg>