<svg width="35" height="29" fill="none" xmlns="http://www.w3.org/2000/svg"><path d="M5.34 4.53c-9.19 11.87 14.7 11.79 11.52 1.7C13.76-3.6 3.76 2.3 1 8.75m2.56 7.47C2.81 18.28.68 24.42 2.37 27c.39.59.18 1.12.94.96l6.9-1.44c5.44-1.13 10.82-2.09 16.4-2.12 1.86 0 2.84-.2 1.51-2.75-1.56-3-2.8-7.4-5.39-9.62-.42-.37-.45-1.22-1.07-.82-1.29.81-2.03 2.16-2.96 3.4-1.72 2.27-6.12 3.86-8.88 3.8-2.22-.06-3.9-1.7-5.8-2.63m21.24-8.85 4.07-.85m0 0L34 5.1m-4.67.98a54.8 54.8 0 0 0-1.31-3.34m1.31 3.34c.5 1.4.91 2.8 1.22 4.26" stroke="#404040" stroke-width="2" stroke-linecap="round"/></svg>