<svg viewBox="0 0 59 67" fill="none" xmlns="http://www.w3.org/2000/svg"><path d="m19.14 63.56-1.5-.15a1.5 1.5 0 0 0 1.73 1.63l-.23-1.48ZM17.5 50.91l-1.39.57 1.39-.57Zm-5.83-9.1-1.17.93 1.17-.93Zm-4.79-6.09-1.33.68 1.33-.68ZM3.86 20.95l1.47.3-1.47-.3Zm1.96-6.16-1.4-.55 1.4.55Zm28.22-8.22-.58 1.38.58-1.38Zm10.2 11.9 1.46-.36-1.46.36Zm2.65 4.9 1.03-1.1-1.03 1.1Zm4.03 3.9-1.19.9 1.2-.9Zm.07 4.42 1.12 1-1.12-1Zm-1.26 3.17-1.36.63 1.36-.63Zm.49 1.8 1.5.13-1.5-.13Zm-1.21 1.3-1.11-1 1.11 1Zm1.03 1.77 1.19-.91-1.19.91Zm-.49 3.24-1.48.22 1.48-.22Zm.36 1.92-1.5.03 1.5-.03Zm-1.6 1.67-.79-1.28.8 1.28Zm-5.28 1.76-.57-1.4.57 1.4Zm-1.36.8 1.35.65-1.35-.66Zm2.07 10.59.23 1.48A1.5 1.5 0 0 0 45 58.9l-1.27.8Zm-23.11 4c.44-4.3-.02-9.25-1.74-13.38l-2.77 1.15c1.5 3.58 1.93 8 1.52 11.93l2.99.3Zm-1.74-13.38c-1.47-3.54-3.79-6.64-6.04-9.46l-2.34 1.87c2.23 2.8 4.31 5.62 5.61 8.74l2.77-1.15Zm-6.04-9.46c-.85-1.06-1.84-2.1-2.6-2.97-.8-.92-1.49-1.81-2.02-2.86L5.56 36.4c.69 1.37 1.56 2.48 2.43 3.47.91 1.05 1.7 1.85 2.52 2.87l2.34-1.87Zm-4.62-5.83a30.76 30.76 0 0 1-2.33-7l-2.92.7c.62 2.59 1.29 5.11 2.58 7.66l2.67-1.36Zm-2.33-7c-.6-2.53-1.03-4.58-.57-6.78l-2.94-.61c-.61 2.94 0 5.6.6 8.08l2.91-.7Zm-.57-6.78a38.1 38.1 0 0 1 1.88-5.92l-2.79-1.1a40.98 40.98 0 0 0-2.03 6.4l2.94.62ZM17.3 8.58a38.38 38.38 0 0 1 7.85-1.6c2.94-.26 5.87-.06 8.3.97l1.18-2.76c-3.07-1.3-6.55-1.48-9.74-1.2-3.2.27-6.24 1.03-8.48 1.73l.89 2.86Zm16.16-.63a15.43 15.43 0 0 1 9.32 10.88l2.92-.72A18.43 18.43 0 0 0 34.63 5.19l-1.17 2.76Zm9.32 10.88a10.88 10.88 0 0 0 3.08 5.63l2.06-2.18a7.9 7.9 0 0 1-2.22-4.17l-2.92.72Zm3.08 5.63c.67.63 1.5 1.33 2.12 1.9.68.6 1.27 1.19 1.75 1.81l2.38-1.82c-.64-.84-1.4-1.57-2.12-2.23-.77-.7-1.4-1.21-2.07-1.84l-2.06 2.18Zm3.87 3.71c.41.54.58 1.02.6 1.4.02.34-.08.7-.45 1.11l2.23 2.01a4.49 4.49 0 0 0 1.22-3.27 5.53 5.53 0 0 0-1.22-3.07l-2.38 1.82Zm.15 2.5c-.24.28-.4.43-.68.73-.24.24-.52.56-.75.95-.24.4-.43.9-.45 1.48-.02.57.12 1.13.37 1.66l2.72-1.26a1.2 1.2 0 0 1-.1-.28v-.01l.04-.06c.05-.09.15-.21.35-.43l.73-.76-2.23-2.01Zm-1.51 4.82a6.04 6.04 0 0 1 .35.98v.05l3 .27a3.98 3.98 0 0 0-.21-1.5c-.13-.42-.3-.8-.42-1.06l-2.72 1.26Zm.36 1.03c.03-.33.26-.45.08-.31l-.14.1-.2.15c-.14.1-.37.27-.57.5l2.22 2 .1-.08.44-.3c.31-.25.97-.82 1.05-1.79l-2.98-.27Zm-.83.43a2 2 0 0 0-.48 1.87c.13.54.47.93.66 1.13.21.23.46.43.6.55l.17.15 2.38-1.83a3.03 3.03 0 0 0-.61-.6c-.18-.16-.29-.25-.36-.33-.04-.04-.04-.04-.03-.02.02.01.06.09.1.21a1.02 1.02 0 0 1-.2.88l-2.23-2Zm.95 3.7c-.13-.17-.12-.34-.12-.33 0 .05-.03.17-.14.45-.08.2-.25.6-.36.94-.11.35-.25.9-.16 1.48l2.96-.44c.02.1-.01.1.06-.12.07-.23.15-.4.3-.78.12-.3.28-.75.33-1.24.05-.53-.03-1.19-.49-1.8l-2.38 1.84Zm-.78 2.54c.06.41.17.83.23 1.08.07.3.1.49.1.65l3-.06c0-.5-.1-.95-.18-1.28-.1-.38-.15-.59-.19-.83l-2.96.44Zm.34 1.73c0-.29.18-.36-.02-.2a3.23 3.23 0 0 1-.6.4l-.27.16 1.58 2.55c.18-.11.77-.43 1.2-.79a2.77 2.77 0 0 0 1.1-2.18l-3 .06Zm-.89.36c-.6.38-1.3.6-2.18.82-.82.2-1.89.43-2.88.83l1.13 2.78c.74-.3 1.5-.45 2.48-.7.93-.24 2-.55 3.03-1.18l-1.58-2.55Zm-5.06 1.65c-.13.05-.5.2-.84.38-.18.08-.39.2-.59.34-.15.11-.5.37-.71.8l2.7 1.32c-.08.16-.17.26-.2.28l-.04.04.2-.11c.21-.11.45-.2.61-.27l-1.13-2.78Zm-2.14 1.53c-.26.52-.3 1.07-.27 1.48.02.43.1.85.19 1.21.1.36.2.71.3 1l.19.65 2.92-.7c-.07-.28-.18-.6-.26-.87-.1-.29-.18-.56-.24-.82-.07-.26-.1-.46-.1-.6-.01-.16.01-.14-.03-.04l-2.7-1.31Zm.4 4.34c.25 1.02.31 2.14.5 3.58.17 1.31.45 2.85 1.24 4.12l2.55-1.59A7.49 7.49 0 0 1 44.2 56c-.15-1.15-.26-2.68-.55-3.9l-2.92.7ZM7.23 15.34c.63-1.62 2-2.97 3.86-4.11a28.07 28.07 0 0 1 6.22-2.65l-.89-2.86a31 31 0 0 0-6.9 2.95c-2.15 1.32-4.13 3.11-5.09 5.57l2.8 1.1Zm12.15 49.7 24.6-3.85-.47-2.97-24.6 3.86.47 2.96Z" fill="#404040"/><path d="M10.38 25.62c.44-.78.48-1.83.72-2.68.27-.96.7-1.83 1.25-2.65 1.32-1.96 3.07-3.29 4.96-4.63 2.3-1.63 4.08-2.99 7-2.94 2.87.05 5.36 1.64 7.55 3.41 4.4 3.57 9.5 9.78 5.66 15.56a13.94 13.94 0 0 1-9.5 6.27c-4.4.79-8.77.22-10.72-4.46-2.28-5.47.36-15.21 7.6-13.85 2.59.48 5.51 2.97 5.64 5.8.1 2.31-1.35 4.62-3.05 6.05-3.1 2.59-7.64-1.3-6.01-4.97.54-1.21 3.25-2.3 3.68-.48" stroke="#404040" stroke-width="3" stroke-linecap="round"/></svg>