<svg width="40" height="36" fill="none" xmlns="http://www.w3.org/2000/svg"><path d="M23.98 18.99c1.65-.5 3.5-.83 5.02-1.67 1.2-.66 2.25-1.56 3.3-2.43.83-.68 1.89-1.29 2.47-2.2.58-.92.84-1.67.79-2.77-.06-1.19-.44-2.33-.77-3.45-.34-1.15-.58-2.44-1.1-3.53-.4-.84-1.4-.38-2.08-.18l-7.43 2.27c-4.25 1.3-8.48 2.63-12.74 3.88-2.1.62-4.28.84-6.38 1.48-1.06.33-2.6.5-3.46 1.24-.95.8-.56 2.15-.26 3.17.42 1.5.9 3.02 1.5 4.45.33.83.53 1.96 1.16 2.64.3.33.74.37 1.16.4 1.02.08 2.05-.01 3.07-.11 2.62-.26 5.24-.4 7.84-.83.31-.05 1.88-.3 2.22-.65m0 0a.23.23 0 0 0 .06-.1c.1-.34.03-.66.18-1 .22-.5.9-.63 1.36-.77l2.1-.64c.46-.14.88-.27 1.3.07.3.25.36.86.47 1.22l.42 1.42c.08.26.26.53 0 .7-.52.34-1.11.58-1.68.82-.7.3-1.52.55-2.26.7-.37.06-1 .12-1.3-.16-.59-.55-.5-1.51-.65-2.26Zm0 0a2.56 2.56 0 0 0-.06-.24M12.55 8.39c-.54-1.86-1.6-4.21.25-5.7a5.24 5.24 0 0 1 2.28-.94c1.26-.27 2.47-.53 3.75-.68.62-.07 1.1-.2 1.6.26.5.47 1.13 1.28 1.32 1.95l.52 1.77M5.97 22.7c.6.95.6 2.23 1.14 3.24.56 1.07.84 2.24 1.18 3.4.27.9.46 1.88.9 2.73.33.63.48 1.32.9 1.91.23.36.55.82.97.96.53.18 1.4-.09 1.92-.22 1.04-.25 2.07-.61 3.1-.93L28 30.16c2.53-.77 5-1.69 7.51-2.48.67-.21 1.32-.5 2-.7.37-.12.96-.18 1.25-.5.52-.59.06-1.7-.16-2.33-.77-2.25-1.75-4.4-2.42-6.68l-1.36-4.6" stroke="#404040" stroke-width="2" stroke-linecap="round"/></svg>