<svg width="31" height="37" fill="none" xmlns="http://www.w3.org/2000/svg"><path d="m10.33 36-1-.1a1 1 0 0 0 1.15 1.09l-.15-.99Zm-.98-7.61-.92.38.92-.38ZM5.84 22.9l-.78.63.78-.63Zm-2.88-3.66.9-.45-.9.45Zm-1.47-4.4.97-.24-.97.23Zm-.36-4.48.98.2-.98-.2Zm1.18-3.7.93.36-.93-.37ZM19.3 1.71l.39-.92-.4.92Zm6.13 7.16.97-.24-.97.24Zm1.6 2.94-.69.73.69-.73Zm2.42 2.35-.79.6.8-.6Zm.05 2.66-.74-.67.74.67Zm-.77 1.9.91-.42-.9.42Zm.3 1.09-1-.1 1 .1Zm-.73.78-.74-.67.74.67Zm.62 1.07.8-.61-.8.6Zm-.3 1.95 1-.15-1 .15Zm.22 1.15 1-.02-1 .02Zm-.96 1-.52-.85.52.85Zm-3.18 1.06.38.93-.38-.93Zm-.81.48.9.44-.9-.44Zm.3 2-.96.24.97-.23Zm.94 4.37.15.99a1 1 0 0 0 .7-1.52l-.85.53ZM4.19 12.69a1 1 0 1 0 1.74.98l-1.74-.98Zm1.3-1.13-.96-.27.96.27Zm.75-1.59-.83-.56.83.56ZM9.23 7.2l-.58-.82.58.82Zm4.21-1.77-.01 1 .01-1Zm4.54 2.05.63-.78-.63.78Zm3.4 9.36.84.55-.83-.55Zm-5.7 3.77-.19-.99.18.99Zm-6.46-2.68.93-.39-.93.39Zm4.58-8.33.18-.99-.18.99Zm3.39 3.49 1-.04-1 .04Zm-1.84 3.63-.64-.77.64.77Zm-3.61-2.98-.92-.41.92.4Zm1.24-.06a1 1 0 1 0 1.95-.47l-1.95.47ZM11.32 36.1c.27-2.6 0-5.6-1.05-8.1l-1.84.77c.88 2.13 1.15 4.78.9 7.13l2 .2ZM10.27 28c-.9-2.14-2.3-4.02-3.65-5.71l-1.56 1.25a22.44 22.44 0 0 1 3.37 5.23l1.84-.77ZM6.62 22.3c-.51-.64-1.11-1.27-1.57-1.79a8.3 8.3 0 0 1-1.2-1.7l-1.78.9c.42.84.95 1.51 1.48 2.12.55.63 1.02 1.1 1.5 1.72l1.57-1.25ZM3.85 18.8a18.4 18.4 0 0 1-1.4-4.2l-1.94.47c.38 1.56.78 3.1 1.56 4.64l1.78-.9Zm-1.4-4.2c-.35-1.51-.6-2.72-.34-4.03l-1.95-.4c-.38 1.8 0 3.41.35 4.9l1.95-.46Zm-.34-4.03c.24-1.15.68-2.38 1.13-3.54L1.38 6.3a24.74 24.74 0 0 0-1.22 3.87l1.95.4Zm7.14-7.55a23 23 0 0 1 4.7-.96c1.76-.15 3.51-.03 4.96.58L19.69.8a12.5 12.5 0 0 0-5.9-.73A25 25 0 0 0 8.65 1.1l.6 1.91Zm9.66-.38a9.19 9.19 0 0 1 5.55 6.48l1.94-.48A11.18 11.18 0 0 0 19.7.8l-.78 1.84Zm5.55 6.48a6.64 6.64 0 0 0 1.88 3.43l1.37-1.45a4.66 4.66 0 0 1-1.3-2.46l-1.95.48Zm1.88 3.43c.4.38.9.8 1.28 1.14.4.37.76.71 1.04 1.08l1.59-1.21c-.4-.52-.85-.96-1.3-1.35-.46-.43-.83-.73-1.24-1.11l-1.37 1.45Zm2.32 2.22c.24.31.33.58.34.79 0 .17-.04.37-.24.6l1.48 1.34c.54-.6.8-1.3.76-2.04a3.43 3.43 0 0 0-.75-1.9l-1.59 1.21Zm.1 1.39-.41.42c-.15.16-.32.35-.47.6-.15.25-.27.56-.28.93-.02.37.07.71.23 1.04l1.81-.84c-.05-.11-.04-.15-.04-.12s-.02.04 0 0l.2-.23.44-.46-1.48-1.34Zm-.93 3a3.54 3.54 0 0 1 .2.56c0 .04 0 .04 0 0l2 .19c.03-.37-.06-.72-.13-.95a5.5 5.5 0 0 0-.26-.65l-1.81.84Zm.2.57c.02-.12.06-.2.1-.25.02-.04.04-.04 0-.01a2.4 2.4 0 0 1-.09.06l-.12.09c-.09.06-.23.17-.36.31l1.49 1.34.04-.03.26-.2c.2-.14.62-.5.68-1.13l-2-.18Zm-.47.2c-.3.33-.42.77-.31 1.21.09.35.3.6.42.73.13.14.29.26.37.33l.09.08 1.59-1.22a1.91 1.91 0 0 0-.39-.38l-.2-.19c-.02-.02-.02-.02 0 0 0 .02.04.07.06.16a.71.71 0 0 1-.14.62l-1.49-1.34Zm.57 2.35a.42.42 0 0 1-.1-.27v.07l-.07.17-.22.58c-.07.21-.16.55-.1.93l1.98-.3c0 .1-.02.1.03-.02l.18-.47c.07-.18.17-.46.2-.76a1.6 1.6 0 0 0-.31-1.15l-1.59 1.22Zm-.5 1.48.15.66c.04.18.06.28.06.37l2-.04c0-.31-.07-.59-.11-.8-.06-.22-.1-.34-.11-.48l-1.98.3Zm.21 1.03c0-.1.03-.18.06-.21.01-.03.01-.02-.03.02a1.86 1.86 0 0 1-.35.22l-.16.1 1.05 1.7c.1-.06.46-.26.73-.48.28-.23.72-.69.7-1.39l-2 .04Zm-.48.13c-.36.22-.76.35-1.3.48-.48.12-1.13.26-1.73.5l.75 1.86c.43-.18.88-.27 1.48-.42a6.4 6.4 0 0 0 1.85-.72l-1.05-1.7Zm-3.03.98c-.08.04-.3.12-.52.23-.1.06-.24.13-.36.22-.1.07-.33.24-.46.52l1.8.88a.73.73 0 0 1-.14.2l-.04.03.1-.06c.13-.07.27-.12.37-.16l-.75-1.86Zm-1.34.97c-.17.34-.19.68-.18.94.01.27.07.53.12.75a10.4 10.4 0 0 0 .3.99l1.94-.47c-.04-.17-.1-.37-.16-.53a8.56 8.56 0 0 1-.2-.83c0-.08.01-.05-.03.03l-1.8-.88Zm.24 2.68c.14.6.17 1.27.29 2.15.1.78.27 1.73.76 2.51l1.7-1.06a4.41 4.41 0 0 1-.48-1.71c-.09-.68-.15-1.62-.33-2.36l-1.94.47ZM3.24 7.03a5.25 5.25 0 0 1 2.3-2.42 16.8 16.8 0 0 1 3.71-1.59l-.6-1.9C7.32 1.52 5.8 2.1 4.5 2.9a7.21 7.21 0 0 0-3.1 3.4l1.85.73Zm7.24 29.96 14.8-2.32-.3-1.98-14.8 2.32.3 1.98ZM5.93 13.67c.21-.38.3-.78.37-1.08.07-.36.1-.54.16-.76l-1.93-.54c-.08.3-.15.7-.19.9-.05.26-.1.4-.15.5l1.74.98Zm.53-1.84c.13-.45.33-.88.61-1.3L5.41 9.41a6.5 6.5 0 0 0-.88 1.88l1.93.54Zm.61-1.3C7.76 9.51 8.67 8.81 9.81 8L8.65 6.37c-1.14.81-2.33 1.7-3.24 3.04l1.66 1.12ZM9.81 8c1.43-1 2.23-1.6 3.62-1.58l.03-2c-2.14-.04-3.47 1-4.8 1.95L9.8 8Zm3.62-1.58c1.36.02 2.64.79 3.92 1.83l1.26-1.56c-1.34-1.08-3.07-2.24-5.15-2.27l-.03 2Zm3.92 1.83a12.4 12.4 0 0 1 3.3 3.84c.7 1.42.8 2.83-.1 4.18l1.67 1.11c1.4-2.12 1.14-4.31.22-6.17-.9-1.82-2.45-3.4-3.83-4.52l-1.26 1.56Zm3.2 8.02a7.4 7.4 0 0 1-5.06 3.34l.36 1.97a9.39 9.39 0 0 0 6.37-4.2l-1.67-1.1Zm-5.06 3.34a6.8 6.8 0 0 1-3.28-.07 3.29 3.29 0 0 1-2.06-2l-1.85.76a5.28 5.28 0 0 0 3.28 3.14c1.36.45 2.87.4 4.27.14l-.36-1.97Zm-5.34-2.08a6.76 6.76 0 0 1 .13-4.92c.33-.76.78-1.34 1.32-1.7.52-.33 1.17-.5 2.01-.34l.37-1.97a4.63 4.63 0 0 0-3.48.64 5.76 5.76 0 0 0-2.06 2.57c-.86 2-.94 4.57-.14 6.5l1.85-.78Zm3.46-6.96c.56.1 1.22.45 1.74.95.52.5.81 1.08.84 1.6l2-.08a4.46 4.46 0 0 0-1.45-2.95 5.59 5.59 0 0 0-2.76-1.49l-.37 1.97Zm2.58 2.55c.04.97-.6 2.09-1.48 2.82L16 17.48c1.17-.98 2.27-2.64 2.2-4.44l-2 .08Zm-1.48 2.82c-.47.4-1.08.36-1.59-.08-.53-.44-.74-1.12-.47-1.73l-1.83-.81a3.47 3.47 0 0 0 1.01 4.08c1.07.9 2.77 1.24 4.16.08l-1.28-1.54Zm-2.06-1.8c-.01.02 0-.03.12-.11.1-.08.23-.14.34-.16.12-.03.12 0 .05-.03a.35.35 0 0 1-.14-.1l-.04-.07 1.95-.47a1.7 1.7 0 0 0-1-1.2c-.46-.2-.94-.16-1.3-.08-.38.1-.74.27-1.03.49-.3.21-.6.51-.78.91l1.83.81Z" fill="#404040"/></svg>