<svg width="28" height="42" fill="none" xmlns="http://www.w3.org/2000/svg"><path d="M13.28 10.2c-2.85 1.76-5.42 6.26-1.45 8.5 1.66.94 4.8.13 5.78-1.59 1.13-1.97-.19-5.8-1.96-6.94-2.41-1.55-5.06 1.3-6.77 2.61M23.14 38.3l-1.28-.51m0 0C12.8 34.02 2.05 25.55 1.06 15.04.47 8.72 4.16 4.4 9.65 2.14 14.07.32 17.96.5 21.45 4.04c3.84 3.9 6.02 9.27 5.46 14.8-.61 6.08-3.32 11.35-4.56 17.18-.17.76-.33 1.3-.49 1.77Zm0 0c-.33.99-.64 1.6-.83 3.21" stroke="#404040" stroke-width="2" stroke-linecap="round"/></svg>