<svg viewBox="0 0 67 56" fill="none" xmlns="http://www.w3.org/2000/svg"><path d="M14.16 14.17C-.69 33.56 37.91 33.42 32.78 16.95c-5-16.07-21.19-6.42-25.64 4.12" stroke="#404040" stroke-width="3" stroke-linecap="round"/><path d="M11.28 33.25c-1.2 3.37-4.65 13.41-1.92 17.63.63.96.28 1.82 1.51 1.57l11.17-2.35c8.79-1.85 17.48-3.41 26.51-3.46 3-.02 4.58-.33 2.44-4.5-2.53-4.91-4.53-12.08-8.71-15.7-.7-.6-.73-2-1.74-1.35-2.08 1.33-3.28 3.53-4.79 5.55-2.78 3.71-9.88 6.31-14.35 6.2-3.6-.08-6.29-2.76-9.36-4.28M46.36 18.1l14.13-2.97M50.82 11.26a67.64 67.64 0 0 1 4.09 12.42" stroke="#404040" stroke-width="3" stroke-linecap="round"/></svg>