<svg width="28" height="28" fill="none" xmlns="http://www.w3.org/2000/svg"><path d="m24.15 23.94.95.33-.95-.33Zm-7.08-9.8-.86.5a1 1 0 0 0 1.85-.62l-.99.11Zm5.07 12.53a1 1 0 1 0 1.88.66l-1.88-.66Zm2.13-3.72c-4.85-.58-11.7-1.92-16.6-4.03-2.46-1.07-4.25-2.26-5.11-3.51A2.8 2.8 0 0 1 2 13.63c.04-.6.3-1.32.94-2.16l-1.59-1.21a5.94 5.94 0 0 0-1.34 3.26 4.8 4.8 0 0 0 .9 3.02c1.19 1.74 3.43 3.11 5.98 4.21 5.14 2.22 12.22 3.6 17.14 4.18l.24-1.98ZM2.94 11.47c1.37-1.79 2.7-2.64 3.91-2.96 1.2-.31 2.4-.13 3.59.42 2.42 1.12 4.55 3.65 5.77 5.71l1.72-1.02c-1.31-2.21-3.7-5.14-6.65-6.5-1.5-.7-3.19-1-4.94-.54-1.74.45-3.43 1.64-4.99 3.68l1.59 1.21Zm15.12 2.55c-.46-3.94.33-6.93 1.52-8.79 1.22-1.9 2.7-2.44 3.7-2.15 1.03.29 2.3 1.61 2.64 5.02.33 3.35-.29 8.42-2.71 15.52l1.89.64c2.47-7.23 3.18-12.61 2.8-16.36-.36-3.7-1.84-6.11-4.06-6.75-2.23-.63-4.48.72-5.94 3-1.49 2.33-2.33 5.8-1.82 10.1l1.98-.23Zm5.15 9.59-1.07 3.06 1.88.66 1.08-3.06-1.89-.66Z" fill="#404040"/></svg>