<svg xmlns="http://www.w3.org/2000/svg" viewBox="0 0 659 708"><g/><path d="M41.49 564.61c2.13-14.79 3.45-29.75 6.64-44.3 2.38-10.85 3.27-21.18.55-31.98-4.91-19.48-5.77-39.36-6.18-59.4-.56-26.95 4.41-53.01 10.23-79.01 2.02-9.03 4.79-18 8.33-26.54 3.7-8.95 4.06-18.07 4.11-27.4.09-16.28 2.13-32.44 8.87-47.2 3.98-8.72 10.52-16.54 17.05-23.74 5.28-5.82 12.2-10.18 18.52-15.03 1.81-1.38 4.19-2 6.07-3.31 3.73-2.6 7.34-5.39 10.91-8.2 1.16-.91 1.88-2.48 3.12-3.16 3.3-1.79 5.73-3.92 5.36-8.11-.07-.74.39-1.65.86-2.29 8.09-10.93 16.25-21.81 24.33-32.75 11.42-15.48 27.54-25.87 41.69-38.36 4.38-3.87 9.91-6.58 15.21-9.24 7.88-3.96 14.5-9.01 19.85-16.25a124.88 124.88 0 0 1 17.36-19.24c24.5-21.7 53.05-34.76 85.75-38.02 11.9-1.19 23.88-1.54 35.83-2.22 1.65-.09 3.36-.03 4.98.3 15.27 3.09 30.62 5.87 45.74 9.57 7.03 1.72 13.56 5.41 20.42 7.91 3.06 1.11 6.4 2.14 9.59 2.07 7.44-.16 14.92-1.81 22.3-1.42 14.38.77 28.63 2.45 42.29 8.02 10.99 4.49 20.37 11.45 28.7 19.19a49.82 49.82 0 0 1 13.97 23.16c3.83 14.09 7.73 28.16 11.51 42.26.47 1.75.65 3.63.62 5.45-.23 15.8-.64 31.6-.71 47.4-.01 2.67 1.09 5.45 2.12 8 4.58 11.38 9.49 22.62 13.93 34.05 1.74 4.47 2.13 9.46 3.88 13.92 5.02 12.72 2.55 26.43 5.62 39.38 1.19 5 2.71 9.96 3.45 15.03 1.73 11.83 4.27 23.71 4.34 35.59a200.28 200.28 0 0 1-12.16 69.92c-1.97 5.41-4.98 10.49-7.92 15.49-1.93 3.28-1.19 5.42 1.37 7.8 6.19 5.77 12.42 11.53 18.28 17.63 5.97 6.22 11.37 12.99 17.32 19.24 4.91 5.16 10.19 9.87 13.24 16.61 5.86 12.94 9.25 26.23 7.01 40.49-.38 2.4-1.52 4.76-2.69 6.93-3.63 6.7-6.73 13.85-11.41 19.75-3.82 4.82-9.25 8.68-14.6 11.92-12.52 7.6-25.52 14.57-40.08 17.27-18.47 3.43-37.12 5.95-55.63 9.17-3.2.56-6.13 2.69-9.19 4.09-2.69 1.23-5.43 2.34-8.06 3.67-9.15 4.65-18.1 9.72-27.41 14.01-15.13 6.97-30.8 12.43-47.27 15.41-4.4.79-8.63 2.45-12.98 3.57-2.56.66-5.38.62-7.76 1.64-5.09 2.18-10.2 4.5-14.9 7.41-5.63 3.48-10.57 8.1-16.29 11.4-6.88 3.97-14.17 7.29-21.47 10.47-7.22 3.14-14.8 5.45-21.98 8.67-22.39 10.04-45.84 15.19-70.27 16.89-25.76 1.79-50.36-3.13-74.43-11.57-14.96-5.24-28.76-12.79-41.59-22.14-1.53-1.12-4.09-1.99-5.79-1.53-14.58 3.93-28.96.79-43-2.07-10.05-2.05-18.82-8.02-25.47-16.48a84.86 84.86 0 0 0-11.1-11.79 40.83 40.83 0 0 1-12.45-19.42c-3.72-12.48-9.83-24.66-6.69-38.5l-1.84-.06Zm375.94-385.57-1.15 1.61c2.51 2.74 4.82 5.7 7.56 8.19 12.67 11.54 28.2 18.61 43.09 26.5 14.57 7.72 26 18.72 34.68 32.1 7.09 10.92 11.77 23.4 17.6 35.14 1.01 2.03 2.46 3.84 3.71 5.76 1.98-1.63 4.09-3.13 5.88-4.94.88-.89 1.23-2.33 1.75-3.55 4.39-10.38 9.17-20.61 13.03-31.18a377.86 377.86 0 0 0 9.98-32.3c.72-2.69-.02-6.47-1.48-8.9-5.21-8.65-11.06-16.92-16.6-25.38-1.9-2.9-3.16-6.37-5.51-8.82-13.1-13.67-26.24-27.32-39.8-40.52-5.68-5.52-11.8-11.33-18.85-14.56-19.64-9.03-37.5-22.53-59.89-24.95-.64-.07-1.24-.47-1.87-.69-8.67-2.95-16.71-2.3-23.75 4.15-13.86 12.69-27.8 25.3-41.54 38.11a96.9 96.9 0 0 0-10.28 11.51c-3.16 4.05-1.82 7.17 2.99 7.65 16.54 1.66 33.22 2.45 49.59 5.17 9.83 1.63 21.29.85 28.21 10.9.68.98 2.21 1.44 3.41 1.98 3.95 1.77 8.02 3.28 11.86 5.26 2.44 1.25 4.56 3.15 6.82 4.76l-.99 2.15-18.46-5.14ZM118.54 475.71l-1.71-.04c-1.41 2.36-3.09 4.6-4.17 7.1-1.84 4.27-3.32 8.69-4.93 13.05-6.18 16.68-12.32 33.37-18.53 50.04-2.39 6.41-2.41 12.7.67 18.85a66.5 66.5 0 0 0 4.66 8.17c6.72 9.65 13.34 19.4 20.5 28.73 4.03 5.24 9.06 9.71 13.62 14.55 3.29 3.49 7.27 4.83 11.79 3.18a248.93 248.93 0 0 0 18.32-7.44c7.82-3.59 15.46-7.57 23.2-11.34 3.4-1.65 4.14-4.13 1.67-7.14a847.93 847.93 0 0 0-17.98-21.33c-7.22-8.22-13.32-16.99-16.46-27.65-.92-3.13-2.93-5.93-4.09-9.01-2.93-7.72-5.53-15.57-8.53-23.27a144.1 144.1 0 0 0-5.97-12.94c-1.84-3.64-4.11-7.07-5.98-10.71-2.15-4.2-4.07-8.53-6.08-12.8Zm262.15 160.1c-2.87-.29-4.37-.49-5.87-.58-6.64-.41-13.38-.2-19.91-1.29-13.07-2.17-26.01-5.37-39.19-.89-.15.05-.33.03-.5.03-16.12.25-32.27 1.25-48.34.48a103.94 103.94 0 0 1-29.14-5.9c-9.47-3.33-17.7-3.42-26.76 1-8.89 4.34-18.42 7.37-27.69 10.93-4.48 1.72-9.03 3.26-13.48 5.04-2.21.88-3.44 2.59-1.28 4.55 2.43 2.22 4.97 4.58 7.91 5.91 7.5 3.41 15.21 6.38 22.9 9.35 15.64 6.04 31.97 8.7 48.65 9.62 4.97.27 9.98 1.63 14.86 1.21a260.78 260.78 0 0 0 57.08-11.33c19.97-6.36 39.07-14.31 56.92-25.25.93-.57 1.75-1.31 3.85-2.89ZM95.09 371.59l1.48-.52c.2-1.89.33-3.79.6-5.66 1.54-10.48 2.51-21.09 4.88-31.38 1.77-7.71 5.2-15.07 8.14-22.48a938.92 938.92 0 0 1 11.47-27.43c.52-1.21 1.97-2.11 3.15-2.93 5.81-4.02 11.71-7.92 17.5-11.97.73-.51 1.14-1.59 1.51-2.48 3.49-8.4 6.63-16.96 10.49-25.19 5.14-10.96 10.86-21.66 16.27-32.49.7-1.41 1.06-3 1.57-4.5-1.68-.4-3.46-1.4-5.01-1.11-8.01 1.49-16.2 2.6-23.85 5.23-7.24 2.49-14.94 4.23-20.82 10.21-9.79 9.97-14.43 22.84-20.97 34.66-.85 1.54-2.15 2.83-3.24 4.24l-1.41-.75c1.38-4.38 2.36-8.95 4.25-13.1 1.92-4.2 4.74-7.99 7.52-12.53-11.98-.45-27.06 26-21.95 35.96 3.06-1.29 3.74-6.87 9.23-4.73-1.7 4.02-2.98 8.16-5.08 11.83-4.84 8.45-9.18 17.23-9.79 26.94-1.27 20.45 2.65 40.39 7.89 60.03.98 3.67 4.06 6.78 6.17 10.14Zm455.67 195.92c3.65 0 5.92.51 7.84-.08 12.5-3.83 25.92-4.8 37.3-12.17 5.42-3.51 11.55-6.07 16.55-10.06 3.79-3.02 6.55-7.47 9.33-11.58 9.53-14.11 12.75-29.67.38-44.7-10.12-12.3-21.01-23.96-31.65-35.83-2.21-2.46-4.55-4.91-7.23-6.8-3.32-2.34-6.26-1.23-7.77 2.05-1.85 4.04-3.94 7.97-5.93 11.94-1.71 3.43-3.78 6.78-1.43 10.78 5.05 8.61 7.47 18.1 8.76 27.87 1.72 13.06-1.02 25.82-6.07 37.48-3.92 9.06-11.07 16.71-16.73 25.03-1.05 1.54-1.82 3.27-3.34 6.07Zm-185.3-25.4c-2.08 2.05-3.27 3.53-4.75 4.61-3.37 2.44-7.01 4.53-10.28 7.09-1.09.86-2.13 2.87-1.86 4.05.23.99 2.51 2.33 3.67 2.14 3.71-.6 7.41-1.57 10.95-2.86 11.35-4.17 23-7.77 33.8-13.08 11.29-5.55 22.08-12.31 32.45-19.48 19.52-13.49 39.84-26.02 56.21-43.63 4.4-4.74 9.66-8.69 13.98-13.49 8.1-9 15.73-18.42 23.71-27.52 2.26-2.58 2.71-4.95.49-7.51-4.1-4.72-8.25-9.39-12.53-13.94-4.39-4.67-8.33-4.35-11.14 1.55-5.89 12.39-14.43 22.93-22.28 34.01-9.74 13.74-19.1 27.81-32.37 38.44-9.7 7.77-19.69 15.3-30.23 21.84-9.99 6.2-20.84 11.02-31.38 16.32-2.48 1.25-5.24 2.79-7.85 2.75-6.71-.11-12.44 1.94-18.73 6.08l8.15 2.64ZM236.83 157.58c2.09-.2 3.85-.23 5.55-.56 20.28-3.92 40.59-7.37 61.39-6.01 1.82.12 3.67-.23 5.49-.08 4.07.32 6.98-1.55 9.51-4.48 6.6-7.65 13.05-15.45 19.94-22.83 9.05-9.7 18.48-19.05 27.69-28.61.93-.97 1.41-2.37 2.1-3.58-1.34-.46-2.71-1.4-4-1.3-6.13.46-12.23 1.19-18.35 1.84-22.33 2.36-43.03 9.64-62.45 20.78-13.81 7.92-25.82 18.13-37.02 29.3-3.69 3.68-6.48 8.27-9.57 12.52-.4.55-.17 1.55-.28 3.02Zm323.44 347.01c-.76-4.59-1.38-9.2-2.37-13.74-.35-1.63-1.52-4.26-2.45-4.32-1.62-.11-3.78 1.03-4.98 2.33-7.69 8.4-14.97 17.18-22.8 25.44-7.64 8.07-15.36 16.15-23.78 23.38-12.58 10.81-25.31 21.55-39.96 29.65-1.81 1-2.85 3.37-4.25 5.11 1.98.99 3.92 2.75 5.95 2.84 8.47.4 17 .84 25.43.26 10.81-.74 22.57.78 30.49-9.52.19-.24.56-.35.87-.49a53.2 53.2 0 0 0 20.77-17.21c2.33-3.18 3.78-7.02 6.19-10.13 7.69-9.93 10.84-21.16 10.88-33.61Zm23.8-212.45c-1.74-7.02-3.22-15.01-5.75-22.64-2.92-8.79-6.72-17.3-10.3-25.87-.63-1.51-2.04-2.69-3.09-4.02-1.08 1.32-2.58 2.48-3.18 3.99-2.14 5.39-3.58 11.09-6.01 16.33-4.67 10.08-9.95 19.88-14.78 29.89-5.17 10.73-5.54 9.01 3.21 17.94 8.67 8.86 16.22 18.8 24.54 28.02 1.39 1.54 4.36 2.72 6.27 2.35 1.29-.25 2.46-3.41 2.87-5.43.82-4.05.96-8.24 1.6-12.33 1.4-9.01 2.94-18 4.62-28.24ZM78.84 531.86c3.08-8.33 5.67-15.67 8.52-22.91a221.6 221.6 0 0 1 6.43-14.55c2.31-4.83 4.92-9.51 7.3-14.3 1.89-3.8 3.35-7.85 5.52-11.48 2.78-4.63 4.48-9.13 2.58-14.59-1.03-2.96-1.17-6.21-2.06-9.23-1.88-6.35-3.6-12.81-6.16-18.89-1.58-3.76-4.6-6.91-7.63-11.28-2.96 6.49-6.05 11.53-7.59 17-2.98 10.62-5.02 21.5-7.59 32.24-2.78 11.62-5.17 23.37-8.74 34.75-3.55 11.31 1.86 20.44 5.55 30.1.44 1.14 2.14 1.79 3.87 3.15Zm60.4-336.03c1.96 0 2.78.09 3.58-.01 12.82-1.73 25.63-3.48 38.45-5.22 4.51-.61 7.23-3.4 8.39-7.54 5.97-21.28 16.94-40.27 26.93-59.72.65-1.26.34-3 .48-4.52-1.38.23-3.02.04-4.09.74-12.81 8.35-25.55 16.79-36.54 27.57a261.27 261.27 0 0 0-35.42 42.95c-.92 1.39-1.05 3.3-1.77 5.75ZM69 350.9l-1.76-.1a42.18 42.18 0 0 0-6.48 20.87c-.18 4.31-.17 8.77-1.32 12.86-5.67 20.11-2.98 40.48-2.38 60.79.1 3.31.66 6.61 1.2 9.89.7 4.24 1.58 8.45 2.38 12.68l1.81-.03c1.83-5.09 3.55-10.22 5.52-15.25 1.26-3.21 2.1-7.72 4.56-9.09 4.43-2.46 4.95-6.29 6.32-10.08.56-1.54 1.27-3.02 1.82-4.56 2.48-7 5.1-13.96 7.27-21.05.59-1.91.26-4.44-.48-6.36-2.94-7.56-6.33-14.94-9.33-22.47a341.12 341.12 0 0 1-6.61-18.13c-1.09-3.24-1.69-6.64-2.51-9.96ZM273.34 73.44l.74.94c1.25-.24 2.51-.43 3.75-.72 11.97-2.82 23.84-6.19 35.93-8.32 11.91-2.1 24.08-2.67 36.05-4.44 15.09-2.23 30.14-1.09 45.23-.44 9.17.39 18.49 3.79 27.41-1.13 1.58-.87 2.82-2.36 4.22-3.56-1.38-1.24-2.57-3.17-4.17-3.61a482.6 482.6 0 0 0-23.15-5.73c-19.39-4.41-39.02-4.5-58.55-1.7-14.09 2.02-28.26 4.51-41.11 11.34a431.01 431.01 0 0 0-20.82 11.58c-2.2 1.33-3.7 3.83-5.52 5.8Zm66.77 98.32c2.51 4.27 4.64 8.3 7.17 12.07 3.29 4.9 5.92 11.22 10.58 14.02 8.89 5.34 18.93 8.84 28.67 12.65 4.07 1.59 7.89 1.29 10.19-3.95 1.89-4.32 11.01-6.41 14.39-3.86 5.5 4.15 11.16 1.96 17.07 1.44-6.63-18.68-72.4-42.24-88.06-32.38Zm8.75 440.39c-1.16-4.94 2.97-4.38 5.78-5.23 4.57-1.38 9.32-2.31 13.74-4.05 6.44-2.54 12.65-5.66 18.98-8.47 3.18-1.41 6.49-2.55 9.57-4.14.93-.48 1.73-2.04 1.77-3.14.03-.8-1.25-2.32-2.01-2.36-6.57-.38-13.32-1.51-19.71-.49-15.51 2.45-30.77 6.6-46.31 8.77-10.62 1.49-21.55.71-32.34 1.15-2.25.09-4.63.68-6.65 1.67-3.04 1.48-3.27 3.8-.25 5.61 3.09 1.86 6.29 3.74 9.69 4.86a251.7 251.7 0 0 0 21.99 6.32c6.18 1.43 12.48 3.47 18.81-.35 1.53-.93 4.11-.14 6.96-.14Zm-136.2-272.56c.36 13.65 4.69 24.65 8.33 35.79.66 2.03 1.59 4.1 2.9 5.75.9 1.13 2.67 1.57 4.05 2.32.65-1.23 1.64-2.39 1.9-3.7 3.18-16.09 6.19-32.2 9.38-48.29a395.35 395.35 0 0 1 4.6-20.4c.68-2.69 2.63-5.14 2.94-7.82.41-3.56-.22-7.25-.4-10.88-3.12 1.56-6.82 2.52-9.23 4.82-4.84 4.62-8.98 9.98-13.42 15.02-7.32 8.31-9.51 18.51-11.04 27.39Zm9.66-194.12 2.65 1.64c2.87-2.53 6.17-4.71 8.52-7.65 5.6-6.98 10.55-14.45 18.81-18.87 2.39-1.28 3.92-4.06 6.11-5.81 7.17-5.75 13.87-12.48 21.87-16.69 9.45-4.97 19.98-7.98 30.22-11.31 8.65-2.82 17.57-4.83 26.33-7.31 1.71-.48 3.27-1.48 4.9-2.23l-.4-1.38c-1.78 0-3.6-.21-5.34.03-12 1.7-24.21 2.61-35.93 5.48-14.65 3.58-29 8.49-43.27 13.45-6.46 2.24-12.07 5.54-15.32 12.95-4.43 10.1-11 19.25-16.37 28.96-1.45 2.62-1.88 5.81-2.78 8.74Zm-32.71 276.58-2.16.3c0 4.69-.66 9.49.13 14.04 1.85 10.62 4.28 21.14 6.71 31.65 1.69 7.29 3.81 14.48 5.66 21.73 1.86 7.3 5.11 13.66 11.97 17.46 9.09 5.04 18.18 10.09 27.44 14.79 2.41 1.23 5.45 1.36 8.24 1.64.88.09 2.45-.85 2.68-1.62.32-1.07.06-2.78-.66-3.58-1.06-1.18-2.66-2.01-4.17-2.64-7.82-3.24-14.37-8.14-20.09-14.35-13.29-14.43-23.14-30.8-28.17-49.84-2.08-7.88-3.54-15.92-5.41-23.86-.46-1.97-1.43-3.82-2.17-5.72Zm183.44 197.36c2.49.27 4.1.77 5.61.55 5.53-.81 11.04-1.82 16.54-2.83 7.49-1.38 15.02-2.66 22.44-4.35 3.58-.82 7.35-1.45 9.69-5.26.97-1.59 3.53-2.75 5.52-3.04 3.06-.46 4.9-1.61 6.57-4.35 2.82-4.61 7.61-4.06 10.7.42.86 1.25 3.45 2.56 4.64 2.14a188.52 188.52 0 0 0 16.46-7c1.13-.52 1.85-1.91 3.22-3.39-1.65-.53-2.38-.94-3.14-.97-10.63-.49-21.26-.92-31.89-1.4-1.64-.07-3.53.16-4.87-.56-4.03-2.17-6.69-.25-9.87 2.03-3.72 2.67-8.02 4.52-12.09 6.68-1.15.61-2.39 1.08-3.58 1.63-6.1 2.85-12.14 5.83-18.3 8.54-6.12 2.7-12.56 4.83-17.65 11.16Zm178.48-495.28 1.87-1.13c-2.84-21.23-12.71-38.64-30.45-51.13-11.87-8.35-25.27-11.77-41.35-8.85 2.26 1.89 3.41 2.95 4.66 3.87 16.99 12.47 34.25 24.61 50.84 37.59 4.61 3.6 10.52 7.28 10.79 14.79.06 1.66 2.36 3.24 3.63 4.86ZM306.15 375.07c3.58 8.65 2.86 17.56 9.21 24.35 5.19 5.55 7.07 5.72 11.9-.32a210.4 210.4 0 0 1 13.64-15.72c3.4-3.49 3.5-6.78 1.49-10.82a96.25 96.25 0 0 1-4.7-10.9c-1.2-3.41-3.19-5.45-6.66-3.8a207.06 207.06 0 0 0-19.7 10.45c-2.28 1.4-3.51 4.5-5.18 6.77ZM441.04 68.79c2.5 1.46 4.46 3.3 6.73 3.81 12.61 2.86 23.27 9.58 33.84 16.53 6.11 4.01 11.84 8.87 18.43 11.82 6.1 2.73 9.49 7.43 13.4 12.13 1.71 2.06 4.4 3.28 6.56 4.99 3.18 2.52 6.55 4.87 9.36 7.77 3.08 3.18 5.53 6.97 8.43 10.35 2.06 2.4 4.57 4.4 6.57 6.83 3.47 4.22 7.03 8.35 7.44 14.36.1 1.52 2.68 2.87 4.12 4.29 1.04-1.66 2.85-3.27 2.95-4.99.19-3.24.2-6.92-1.14-9.73a55.7 55.7 0 0 0-16.55-20.22c-11.55-8.91-22.87-18.13-34.33-27.16-5.72-4.5-11.25-9.34-17.38-13.21-11.36-7.17-23.09-13.76-34.69-20.55-3.74-2.19-10.12-1.06-13.74 2.99ZM429.09 217l-.18.63c-2.49 0-5.02-.25-7.46.1-1.3.19-3.12 1.2-3.46 2.25-.3.94.79 2.82 1.8 3.61 3.38 2.66 7.22 4.76 10.48 7.56 8.65 7.41 18.24 14.14 25.23 22.92 5.82 7.3 13.39 8.47 20.79 11.18 2.69.99 3.99-.75 2.96-3.23a50.17 50.17 0 0 0-4.89-9.14c-3.66-5.32-7.85-10.29-11.47-15.64-4.45-6.58-7.08-14.82-16.36-16.66-5.83-1.15-11.64-2.39-17.46-3.58Zm-251.05 99.74c.4 2.7.51 5.07 1.16 7.28.37 1.25 1.46 2.71 2.59 3.14.74.28 2.51-.86 3.14-1.81 2.66-4.01 5.07-8.18 7.55-12.3 1.88-3.13 3.06-7.08 5.72-9.25 5.93-4.86 7.4-11.36 9.17-18.16.94-3.62 2.79-8.61 5.59-9.8 4.74-2.02 5.53-5.36 6.1-9.2.15-1.02-1.77-3.38-2.7-3.36-4.63.08-9.39.23-13.81 1.43-2.4.65-5.13 3.03-6.17 5.32a1101.24 1101.24 0 0 0-15.88 37.48c-1.24 3.04-1.71 6.38-2.44 9.24Zm44.68-64.93c6.1.47 12 .53 16.19-5.16 6.69-9.07 13.59-17.98 20.13-27.16.94-1.32.95-4.03.22-5.53-.45-.92-3.15-1.13-4.79-.99-1.94.16-3.82 1.03-5.72 1.6-9.23 2.76-16.08 9.3-22.97 15.4-5.01 4.43-9.04 10.09-12.95 15.6-3.09 4.34-1.83 6.2 3.41 6.24 2.16.02 4.32 0 6.48 0ZM484.94 504.4l.31 2.14c3.45 0 7.76 1.33 10.21-.24a187.72 187.72 0 0 0 23.44-17.6c5.61-4.98 9.07-12.18 16.09-15.93 1.78-.95 2.99-3.09 4.28-4.81a12.87 12.87 0 0 0-1.25-17.29c-2-2-3.77-1.69-5.39.53-1.77 2.41-3.5 4.85-5.42 7.14-4.92 5.84-9.9 11.63-14.91 17.39-4.99 5.72-9.91 11.51-15.12 17.02-3.87 4.09-8.15 7.78-12.25 11.65Zm-361.53-76.67 1.49-.48c.31-1.05.89-2.11.9-3.16.06-5.47-.02-10.93-.06-16.4-.11-14.12-.46-28.25-.22-42.37.11-6.62 1.46-13.21 2-19.83.11-1.35-.91-2.8-1.42-4.2-1.38.71-3 1.18-4.07 2.21a8.22 8.22 0 0 0-2.13 3.9c-1.7 7.09-3.76 14.14-4.71 21.34-2.43 18.47 2.76 36.33 5.23 54.39.22 1.64 1.96 3.07 2.99 4.6Zm77.69 122.34 1.27-1.44c-1.19-1.6-2.17-3.42-3.6-4.76-4.12-3.86-8.47-7.47-12.64-11.28-10.18-9.31-16.44-21.14-21.16-33.83-2.07-5.56-6.04-9.04-10.8-11.94-3.55-2.17-5.2-1.17-5.09 3.03.04 1.3.56 2.57.82 3.87 1.97 9.92 7.53 17.89 13.85 25.41 2.77 3.29 5.7 6.47 8.82 9.42 4.34 4.11 8.72 8.24 13.48 11.82 4.75 3.58 10.01 6.49 15.04 9.7Zm90.59-373.36c-3.23 0-5.04-.36-6.63.06-10.09 2.67-20.23 5.23-30.14 8.45-4.18 1.36-8.02 3.99-11.72 6.48-3.01 2.03-2.91 5.75-.07 6.08 5.51.63 11.19 1.06 16.66.41 5.55-.66 11-2.56 16.37-4.27a14.85 14.85 0 0 0 5.59-3.55c1.99-1.93 3.58-4.3 5.23-6.56 1.39-1.91 2.63-3.93 4.72-7.1ZM81.42 582.78c-1.24 2.5-2.72 4.27-2.96 6.2a62.22 62.22 0 0 0-.26 11.42c1.06 17.13 12.9 23.38 28.19 22.63 1.4-.07 2.74-1.32 4.11-2.03-.73-1.41-1.12-3.27-2.26-4.16-11.38-8.84-18.2-21.27-26.82-34.07Zm147.62-377.92-.37-.71c-2.13 1.04-4.67 1.65-6.33 3.2-5.93 5.55-11.58 11.4-17.27 17.2a24.05 24.05 0 0 0-2.95 3.97 1014.7 1014.7 0 0 0-9.71 15.64c-1.02 1.68-2.1 3.45-2.55 5.32-.29 1.21.09 3.32.92 3.85.92.59 3.14.33 4.01-.44 1.82-1.6 3.14-3.77 4.64-5.73 5.72-7.46 10.99-15.33 17.27-22.28 4.86-5.38 11-9.6 16.5-14.4.93-.81 1.54-2 2.29-3.01-1.16-.79-2.24-1.76-3.5-2.32-.86-.38-1.96-.21-2.96-.28Zm31.2-36.3s-.73-.5-1.42-.48c-16.13.26-30.96 5.28-44.91 12.92-3.66 2-5.86 5.8-4.62 10.49 6.9 2.11 12.25 1.16 18.42-3.46 9.99-7.47 21.45-12.99 32.53-19.47Zm-81.56 388.01-1.73 1.91c.87 1.82 1.46 3.87 2.68 5.42 4.91 6.25 10.19 12.22 15.01 18.55 4.93 6.47 6.12 6.94 13.25 3.08a48.72 48.72 0 0 0 5.95-3.63c3.48-2.58 3.06-4.31-.84-6.37-5.66-2.99-11.13-6.34-16.73-9.45-5.83-3.23-11.72-6.35-17.59-9.51Zm348.15-217.3c-.06.68-.12 2.35-.36 3.99-1 6.91-2.15 13.81-2.98 20.74-.17 1.39.85 2.92 1.32 4.38 1.41-.91 2.88-1.76 4.21-2.78.46-.36.46-1.26.86-1.77 3.51-4.52 6.67-9.41 10.73-13.38 3.37-3.3 4.92-7.18 4.01-11.12-.55-2.39-4-4.22-6.34-6.04-.99-.77-2.48-.92-3.76-1.27-6.54-1.8-8.01-.6-7.68 7.26Zm-137.5 57.35c.5-.1 1.2-.12 1.79-.38 9.43-4.08 16.06-11.53 22.4-19.19.66-.8-.4-4.23-1.64-5.19-4.01-3.14-9.05-1.66-13.05 2.91-2.27 2.59-4.91 4.86-7.46 7.18-2.3 2.1-4.86 3.93-7.02 6.15-1.69 1.73-2.96 3.88-4.42 5.84 2.59.81 5.18 1.64 7.78 2.43.47.14.98.16 1.63.25ZM289.35 619.5l.46-2.13c-6.59-3.58-13.13-7.24-19.77-10.71-4.4-2.3-8.87-3.95-13.17.5-.68.7-2.19.56-3.28.93-2.51.84-5.07 1.58-7.44 2.72-.82.39-1.51 1.8-1.55 2.78-.03.61 1.17 1.67 1.97 1.85 4.34.96 8.7 1.85 13.1 2.5 4.56.68 9.16 1.28 13.76 1.5 5.29.26 10.6.06 15.9.06Zm-38.28-24.97c-5.18-6.1-10.46-10.42-17.68-7.68-5.95 2.25-11.38 5.94-16.88 9.24-2.6 1.56-2.93 3.84-.57 6.17 4.16 4.12 7.08 4.38 12.49 1.94 5.69-2.57 11.61-4.62 17.4-6.98 1.61-.66 3.11-1.58 5.25-2.69Zm-25.86-151.37c3.34-16.17 1.3-30.47-11.91-41.43-5.19 6.18 3.79 38.98 11.91 41.43Zm318.64-33.39c-1.27-2.37-1.84-3.93-2.82-5.17-1.85-2.34-3.92-4.5-5.91-6.72-3.14-3.51-5.94-3.75-9.43-.82-5.48 4.59-6.35 7.66-3 11.59 1.82 2.13 4.24 3.78 5.92 6 1.9 2.5 4.07 5.66 7.09 3.8 3.25-2 5.46-5.7 8.15-8.68Zm1.85 24.34c3.19 4.34 5.74 7.99 8.56 11.42.41.5 2.76.35 3.17-.23 2.95-4.16 6.09-8.3 8.25-12.88 1.88-4.01-2.53-5.93-4.34-8.72-2.17-3.34-5.37-3.59-7.58-1.29-3.08 3.21-5.17 7.37-8.06 11.7ZM301.69 218.06c2.33-.45 3.97-.7 5.57-1.1 8.17-2.01 16.35-3.98 24.47-6.16 1.36-.37 2.47-1.68 3.69-2.55-1.27-.84-2.5-2.32-3.82-2.43-6.26-.48-12.59-.26-18.83-.93-6.42-.69-10.99 1.22-13.49 7.31-.54 1.31-1.63 3.16-1.15 3.94.69 1.11 2.61 1.45 3.55 1.91Zm241.68 167c2.45 2.34 3.98 4.84 6.05 5.42 1.46.41 4.42-1.29 5.39-2.87 5.19-8.37 6.25-18.94 13.87-26.06.11-.11.23-.3.22-.44-.18-1.8-.39-3.59-.59-5.39-1.33.92-3.2 1.53-3.9 2.8-3.25 5.87-6.96 11.06-12.54 15.19-3.36 2.49-5.29 6.91-8.49 11.34Zm-142.5-46.83c-1.24 4.33 1.88 7.27 5.77 8.27 2.92.74 6.47-.53 9.62-1.36 1.49-.39 2.69-1.84 4.04-2.77 3.6-2.47 3.48-5.67-.41-7.49a111.9 111.9 0 0 0-9.6-4.03c-7.08-2.54-9.39-.84-9.43 7.38Zm179.26 49.81-2.06-4.26c-1.46 1.29-3.33 2.32-4.29 3.91a150.87 150.87 0 0 0-6.98 13.19c-1.7 3.61-1.39 7.45 1.57 10.15 1.44 1.32 4.28 1.94 6.24 1.57 1.35-.25 2.99-2.64 3.25-4.27.98-6.24 1.45-12.56 2.27-20.3Zm-160.5 181.5c4.87 2.06 8.96 2.07 12.33.05a662.35 662.35 0 0 0 27.54-17.64c3.7-2.47 7.04-5.46 10.5-8.29.82-.67 1.42-1.6 2.12-2.41l-.83-.85-51.66 29.13Zm-41.2-245.47c-4.97-.07-8.24-.03-8.47 4.85-.31 6.42.34 7.37 6.2 8.13 2.96.39 5.9.94 8.83 1.49 3.23.61 6.26.41 7.15-3.37.88-3.73-.14-7.13-4.09-8.53-3.57-1.27-7.33-1.98-9.62-2.57Zm-216.6 303.97.11 1.11c2.09-.21 4.3-.05 6.24-.7a806.84 806.84 0 0 0 29.5-10.48c2.45-.93 6.74-1.66 5.2-5.77-1.48-3.95-5.25-2.46-8.28-1.81-1.11.24-2.15.86-3.17 1.4a523.6 523.6 0 0 0-9.62 5.16c-6.67 3.68-13.32 7.39-19.98 11.09Zm4.82-228.18c-6.95 6.22-5.08 37.34 1.69 41.28 4.48-13.84.45-26.95-1.69-41.28Zm164.29-59.72c-.33-4.86-1.96-7.16-5.22-5.67a140.74 140.74 0 0 0-17.52 9.46c-1.31.84-1.68 4.15-1.33 6.12.15.84 3.5 2.02 4.95 1.58 4.59-1.41 9.21-3.09 13.34-5.48 2.62-1.52 4.4-4.51 5.79-6Zm-19.82-81.18c.31 0 1.26.29 1.59-.05 2.65-2.65 6.88-5.17 7.33-8.2.57-3.91-4.3-3.88-7.29-3.51-5.88.72-11.72 1.85-17.48 3.21-1.15.27-2.41 2.22-2.61 3.55-.11.73 1.77 2.35 2.94 2.59 5.02.99 10.11 1.61 15.52 2.42Zm111.75 132.29c-.45-1.86.26-6.63-3.13-4.43-5.67 3.67-11.79 7.98-13.31 15.38-.35 1.69 1.36 4.43 2.93 5.66 1.07.85 4.25.65 5.26-.34 4.45-4.35 8.01-9.38 8.25-16.26Zm51.11-79.92 1.72-1.34c-.74-2.07-1.14-4.37-2.29-6.18a946.5 946.5 0 0 0-16.71-25.34c-1.63-2.38-3.77-4.77-7.65-1.77 1.55 1.81 3.07 3.3 4.24 5.03 2.93 4.36 5.81 8.76 8.5 13.26 2.44 4.09 4.38 8.51 7.01 12.47 1.12 1.7 3.43 2.61 5.2 3.88ZM63.87 577.93c1.44-5.56 2.51-10.89 4.22-16.01 2.23-6.71-1.91-11.19-4.46-16.51-5.21 4.11-5.01 26.74.25 32.52Zm311.65-228.97c-2.64 1.41-6.43 2.21-7.59 4.41-1.21 2.3-.61 6.3.68 8.79.5.96 5.06-.11 7.76-.39.78-.08 1.56-.57 2.27-.99 2.77-1.66 7.81-1.48 6.91-6.36-.95-5.15-5.75-3.88-10.02-5.46ZM182.55 371.3l9.3-29.28c-12.16 3.4-15.27 14.15-9.3 29.28Zm198.61 57.92.34.96c3.68-1.32 7.47-2.38 10.98-4.05 2.11-1 3.18-3.08.92-5.25-3.62-3.48-7.62-3.56-11.64-.35-1.15.92-2.48 1.63-3.69 2.48-1.6 1.13-3.18 2.31-4.76 3.47 1.95.88 3.88 1.81 5.86 2.61.58.24 1.32.09 1.98.12Zm.06 55.59c-8.22-.84-13.05 4.82-18.77 8.44-.52.33-.81 2.24-.47 2.52 1.08.88 2.52 1.88 3.79 1.85 6.58-.18 13.11-5.59 15.44-12.8Zm-58.34-257.33.7 1.53c5.22.63 10.44 1.34 15.67 1.87 3.21.32 4.49-1.59 4.45-4.54-.05-3.08-2.07-3.96-4.69-3.71-3.78.37-7.61.66-11.27 1.56-1.78.43-3.25 2.15-4.86 3.29Zm-10.25 266.63c-3.87 1.36-7.62 2.6-11.3 3.99-7.47 2.82-7.46 2.86-4.35 9.69 3.75-1.76 7.34-4.03 11.27-5.16 6.87-1.96 7.49-2.89 4.39-8.52Zm-45.8-.1c-2.25 1.15-4.09 1.77-5.45 2.96-.45.39.05 3.04.67 3.29 4.34 1.76 8.74 3.7 13.31 4.47 2.75.47 4.28-3.18 2.21-4.62-3.32-2.31-7.04-4.04-10.75-6.1Zm16.18 40.16-.18-2.13c-1.85-.98-3.61-2.31-5.58-2.86a35.7 35.7 0 0 0-7.86-1.08c-1.28-.07-2.59.56-3.89.87.6 1.54.77 3.84 1.88 4.48 3 1.72 6.32 3.33 9.67 3.79 1.81.25 3.96-1.96 5.95-3.06Zm85.72-313.63c-2.21 2.35-4.82 3.84-5.02 5.61-.33 2.95.53 7.6 4.34 6.84 3.06-.61 5.48-4.46 8.19-6.87l-7.51-5.58ZM307.05 414.6c-2.94-4.29-5.58-8.28-8.4-12.14-.68-.93-2.01-1.38-3.05-2.06-.76 1.18-1.95 2.27-2.2 3.55-1.1 5.58 6.51 12.1 13.65 10.64Zm33.83 18.36c-3.41.37-6.61.34-9.54 1.2-1.53.45-2.96 2.33-3.67 3.91-.26.58 1.52 2.53 2.73 3.21 7.08 3.98 11.87-1.31 10.48-8.32Zm249.27-77.89c-5.99 6.12-6.69 13.66-1.77 19.03 3.96-4.29 4.87-14.08 1.77-19.03ZM479.52 107.43c-6.16-7.14-14.24-11.06-23.17-13.53 5.66 7.99 14.9 9.94 23.17 13.53Zm-215.9 127.54c6.03-1.41 11.55-7.81 12.45-14.01-5.1-.8-11.41 6.12-12.45 14.01Zm87.44 162.7c-.85-1.65-1.11-2.84-1.58-2.92-1.02-.18-2.62-.21-3.13.4a88.6 88.6 0 0 0-6.67 9.11c-.42.66.06 2.27.64 3.08.41.56 2.22.96 2.48.65 2.91-3.41 5.63-6.98 8.26-10.32Zm1.56 177.95-.25 1.72 7.47-2.48c-.92-1.85-1.88-3.68-2.75-5.55-.27-.57-.1-1.46-.49-1.85-1.09-1.09-2.36-1.99-3.56-2.97-.44 1.53-1.23 3.06-1.25 4.6-.02 2.17.52 4.35.83 6.53Zm146.99-454.53-1.17 1.41c6.1 4.26 8.72 12.3 17.05 15.03.88-4.11-.75-5.96-3.41-7.57-2.93-1.77-5.66-3.88-8.45-5.87-1.36-.97-2.67-2-4.01-3.01ZM356.06 331.87c.19-3.08-.98-5.37-4.61-5.49-3.33-.12-3.64 2.23-3.51 4.74.14 2.7.23 5.61 3.94 5.76 3.21.14 4.38-1.81 4.18-5.01ZM197.08 213.88l1.31.57c1.83-1.74 3.83-3.33 5.41-5.26.93-1.13 1.39-2.77 1.64-4.26.07-.4-1.56-1.64-2.15-1.49-1.64.43-4.01 1.01-4.53 2.21-1.09 2.51-1.18 5.46-1.69 8.23Zm82.2 375.08 3.29-3.36c-1.23-.82-2.56-2.45-3.66-2.3-2.67.35-4.77.32-6.5-2.11-.3-.42-2.4-.25-2.84.31-.49.61-.38 2.64.1 2.91 2.84 1.58 5.87 2.83 9.61 4.54Zm189.48-69.93c3.89-2.1 7.73-4.13 11.51-6.26a5.78 5.78 0 0 0 2.15-2.01c.42-.73.61-1.85.35-2.61-.15-.44-1.42-.74-2.15-.68-2.54.2-11.08 8.56-11.87 11.56Zm-161.69-90.25c8.98 5.08 11.96 5.05 13.01.16-4.07-1.31-8.05-4.36-13.01-.16Zm46.26-125.79h-1.76c-.77 1.56-2.04 3.1-2.12 4.7-.05 1.04 1.65 2.16 2.56 3.24 1.22-1.27 3.09-2.38 3.46-3.86.28-1.11-1.36-2.7-2.14-4.08Zm-35.31 229.04c-2.45-2.13-3.72-4.06-5.26-4.31-1.16-.18-2.66 1.79-4.02 2.8 1.44 1.07 2.76 2.5 4.38 3.09.92.34 2.34-.69 4.9-1.58Zm217.94-212.22 1.18-2.13c-.99-3.04-3.26-4.56-6.58-4.2-.67.07-1.17 1.81-1.74 2.78l7.14 3.55ZM320.02 191.13l9.04-1.2c-.46-1.11-.68-2.96-1.43-3.21-2.95-.99-5.83-.96-7.61 4.41Zm-43.75 288.93c-1.33-2.13-2.03-4.24-3.49-5.3-1.18-.85-3.28-.63-4.94-.49-.47.04-1.31 2.03-1.17 2.14 1.05.86 2.23 1.67 3.51 2.12 1.76.63 3.63.93 6.09 1.52Zm99.09 94.73c1.75-2.08 3.09-3.37 3.94-4.93.16-.29-2.05-2.54-2.49-2.35-1.59.69-3.09 1.9-4.16 3.27-.24.3 1.36 2.06 2.72 4.02Zm-135.6-78.44.58-7.74-1.5-.91-4.38 4.78 5.3 3.86Zm-83.05-210.71-1.5-.33-3.37 14.97 1.76.39 3.12-15.02Zm192.65 334.54-.79 2.69c1.94.56 3.88 1.17 5.86 1.56.11.02.58-1.82.88-2.8l-5.95-1.45Zm-83.69-55 2.48 1.25c.74-1.64 1.52-3.27 2.12-4.96.05-.13-1.18-.71-1.82-1.08l-2.78 4.79Zm166.06-110.62-2.42.06c0 1.67-.06 3.35.12 5 .01.12 1.7.07 2.61.09l-.31-5.15Zm-76.49-83.43 1.22 1.72 4.72-2.72c-.73-.78-1.96-2.31-2.11-2.21-1.39.91-2.58 2.11-3.83 3.22Z"/></svg>