<svg width="158" height="173" viewBox="0 0 158 173" fill="none" xmlns="http://www.w3.org/2000/svg">
<path d="M0 139.914C0.556222 136.052 0.900924 132.145 1.73395 128.346C2.35546 125.512 2.58787 122.815 1.87758 119.995C0.595393 114.908 0.370815 109.716 0.263748 104.483C0.117511 97.4454 1.41536 90.6402 2.93518 83.8506C3.46268 81.4925 4.18603 79.1501 5.11046 76.92C6.07667 74.5828 6.17067 72.2013 6.18373 69.7649C6.20723 65.5135 6.73995 61.2936 8.50002 57.4392C9.53935 55.1621 11.2472 53.12 12.9524 51.2398C14.3312 49.72 16.1383 48.5814 17.7887 47.3149C18.2613 46.9545 18.8828 46.7926 19.3738 46.4505C20.3478 45.7716 21.2905 45.043 22.2228 44.3092C22.5257 44.0716 22.7137 43.6616 23.0375 43.484C23.8993 43.0166 24.5339 42.4603 24.4372 41.3662C24.419 41.1729 24.5391 40.9353 24.6618 40.7682C26.7744 37.9139 28.9053 35.0728 31.0153 32.2159C33.9975 28.1735 38.207 25.4603 41.9021 22.1987C43.0459 21.1881 44.49 20.4804 45.874 19.7858C47.9318 18.7517 49.6605 17.4329 51.0576 15.5423C52.3904 13.7149 53.9096 12.031 55.5909 10.518C61.9888 4.85134 69.4442 1.44089 77.9834 0.589578C81.091 0.278825 84.2194 0.187427 87.34 0.00985361C87.7709 -0.0136488 88.2174 0.00201929 88.6404 0.0881946C92.628 0.895109 96.6365 1.62107 100.585 2.58728C102.421 3.03643 104.126 4.00003 105.917 4.65288C106.716 4.94274 107.589 5.21171 108.422 5.19343C110.364 5.15165 112.318 4.72077 114.245 4.82261C118 5.02369 121.721 5.4624 125.288 6.91694C128.158 8.08944 130.608 9.90696 132.783 11.9282C134.534 13.5692 135.796 15.6623 136.431 17.9761C137.431 21.6555 138.45 25.3297 139.437 29.0118C139.56 29.4688 139.607 29.9597 139.599 30.435C139.539 34.5609 139.432 38.6869 139.413 42.8129C139.411 43.5101 139.698 44.2361 139.967 44.902C141.163 47.8737 142.445 50.8089 143.605 53.7937C144.059 54.961 144.161 56.2641 144.618 57.4287C145.929 60.7504 145.284 64.3306 146.085 67.7123C146.396 69.018 146.793 70.3132 146.986 71.6372C147.438 74.7265 148.101 77.8288 148.12 80.9311C148.157 87.1578 147.081 93.3411 144.944 99.1898C144.43 100.603 143.644 101.929 142.876 103.235C142.372 104.091 142.565 104.65 143.234 105.272C144.85 106.778 146.477 108.283 148.007 109.876C149.566 111.5 150.977 113.268 152.53 114.9C153.812 116.247 155.191 117.477 155.988 119.237C157.518 122.616 158.403 126.087 157.818 129.811C157.719 130.438 157.421 131.054 157.116 131.62C156.168 133.37 155.358 135.237 154.136 136.778C153.139 138.037 151.721 139.045 150.324 139.891C147.054 141.875 143.659 143.695 139.857 144.401C135.034 145.296 130.164 145.954 125.33 146.795C124.495 146.941 123.729 147.498 122.93 147.863C122.228 148.184 121.512 148.474 120.826 148.822C118.436 150.036 116.099 151.36 113.668 152.48C109.717 154.3 105.625 155.726 101.324 156.504C100.175 156.711 99.0703 157.144 97.9343 157.437C97.2658 157.609 96.5294 157.598 95.9079 157.865C94.5787 158.434 93.2443 159.04 92.017 159.8C90.5467 160.709 89.2567 161.915 87.763 162.777C85.9664 163.813 84.0627 164.68 82.1564 165.511C80.271 166.331 78.2916 166.934 76.4166 167.775C70.5697 170.397 64.4461 171.742 58.0665 172.186C51.3396 172.653 44.9156 171.368 38.63 169.164C34.7234 167.796 31.1197 165.824 27.7693 163.383C27.3698 163.09 26.7013 162.863 26.2574 162.983C22.45 164.009 18.6948 163.189 15.0285 162.443C12.404 161.907 10.1138 160.348 8.37728 158.139C7.51143 157.023 6.5408 155.992 5.47866 155.06C3.93001 153.717 2.80124 151.957 2.2275 149.989C1.25607 146.73 -0.339478 143.549 0.480493 139.935L0 139.919V139.914ZM98.172 39.2275L97.8717 39.6479C98.5271 40.3634 99.1303 41.1364 99.8459 41.7866C103.154 44.8001 107.21 46.6464 111.098 48.7067C114.903 50.7227 117.888 53.5952 120.154 57.0893C122.006 59.9409 123.228 63.1999 124.751 66.2656C125.014 66.7957 125.393 67.2684 125.719 67.7698C126.236 67.3441 126.787 66.9524 127.255 66.4797C127.485 66.2473 127.576 65.8713 127.712 65.5527C128.858 62.8421 130.106 60.1707 131.114 57.4105C132.109 54.6392 132.978 51.8248 133.721 48.9757C133.909 48.2733 133.715 47.2862 133.334 46.6516C131.974 44.3928 130.446 42.2331 128.999 40.0239C128.503 39.2666 128.174 38.3605 127.56 37.7207C124.139 34.151 120.708 30.5864 117.167 27.1394C115.684 25.6979 114.086 24.1807 112.245 23.3373C107.116 20.9792 102.452 17.4538 96.6051 16.8219C96.438 16.8036 96.2813 16.6991 96.1168 16.6417C93.8527 15.8713 91.7532 16.0411 89.9148 17.7254C86.2954 21.0392 82.6552 24.3322 79.0672 27.6774C78.0938 28.6063 77.1962 29.6114 76.3827 30.683C75.5575 31.7407 75.9074 32.5554 77.1635 32.6807C81.4827 33.1142 85.8384 33.3205 90.1133 34.0308C92.6802 34.4565 95.6729 34.2528 97.4799 36.8772C97.6575 37.1331 98.0571 37.2533 98.3704 37.3943C99.4019 37.8565 100.465 38.2508 101.468 38.7679C102.105 39.0943 102.658 39.5904 103.248 40.0109L102.99 40.5723L98.1694 39.2301L98.172 39.2275ZM20.1206 116.699L19.6741 116.689C19.3059 117.305 18.8672 117.89 18.5851 118.543C18.1046 119.658 17.7182 120.812 17.2977 121.951C15.6839 126.306 14.0805 130.665 12.4589 135.018C11.8347 136.692 11.8295 138.334 12.6338 139.94C12.9886 140.679 13.3952 141.392 13.8507 142.074C15.6056 144.594 17.3343 147.14 19.204 149.576C20.2564 150.945 21.5699 152.112 22.7607 153.376C23.6199 154.287 24.6592 154.637 25.8395 154.206C27.4593 153.622 29.0553 152.974 30.6236 152.263C32.6657 151.326 34.6608 150.287 36.682 149.302C37.5698 148.871 37.7631 148.224 37.1181 147.438C35.5836 145.555 34.0183 143.698 32.4228 141.867C30.5374 139.721 28.9445 137.431 28.1245 134.647C27.8842 133.83 27.3594 133.098 27.0564 132.294C26.2913 130.278 25.6123 128.228 24.8289 126.218C24.3653 125.066 23.845 123.938 23.2699 122.838C22.7895 121.888 22.1967 120.992 21.7083 120.042C21.1469 118.945 20.6455 117.814 20.1206 116.699ZM88.5778 158.507C87.8283 158.431 87.4366 158.379 87.0449 158.356C85.311 158.249 83.5509 158.303 81.8457 158.019C78.4326 157.452 75.0535 156.617 71.6117 157.786C71.5725 157.799 71.5255 157.794 71.4811 157.794C67.2716 157.86 63.0542 158.121 58.8577 157.92C56.2605 157.773 53.6978 157.254 51.2482 156.379C48.7752 155.509 46.6261 155.486 44.2602 156.64C41.9386 157.773 39.45 158.565 37.0293 159.494C35.8594 159.943 34.6712 160.346 33.5091 160.81C32.932 161.04 32.6108 161.487 33.1749 161.999C33.8094 162.578 34.4727 163.195 35.2405 163.542C37.199 164.432 39.2124 165.208 41.2205 165.984C45.3047 167.561 49.5691 168.255 53.9249 168.496C55.2227 168.566 56.531 168.921 57.8054 168.812C62.8688 168.385 67.8684 167.392 72.7111 165.853C77.926 164.192 82.9137 162.116 87.575 159.259C87.8179 159.11 88.032 158.917 88.5804 158.505L88.5778 158.507ZM13.997 89.5095L14.3834 89.3737C14.4357 88.8801 14.4696 88.384 14.5401 87.8956C14.9423 85.1589 15.1956 82.3882 15.8145 79.7011C16.2767 77.6878 17.1724 75.7658 17.9401 73.8308C18.9007 71.4274 19.8992 69.0395 20.9354 66.6678C21.0712 66.3518 21.4498 66.1168 21.758 65.9026C23.2752 64.8529 24.8159 63.8344 26.3279 62.7768C26.5185 62.6436 26.6256 62.3616 26.7222 62.1292C27.6336 59.9356 28.4535 57.7003 29.4615 55.5512C30.8038 52.6891 32.2975 49.8949 33.7102 47.0668C33.893 46.6986 33.987 46.2834 34.1202 45.8917C33.6815 45.7872 33.2167 45.5261 32.8119 45.6018C30.7202 45.9909 28.5815 46.2808 26.5838 46.9676C24.6931 47.6178 22.6824 48.0722 21.1469 49.6338C18.5904 52.2373 17.3787 55.5982 15.6708 58.6848C15.4489 59.087 15.1094 59.4238 14.8248 59.792L14.4566 59.5962C14.8169 58.4524 15.0728 57.259 15.5664 56.1753C16.0678 55.0785 16.8042 54.0888 17.5301 52.9032C14.4017 52.7857 10.4638 59.6928 11.7982 62.2937C12.5973 61.9569 12.7748 60.4997 14.2085 61.0585C13.7645 62.1083 13.4303 63.1894 12.8819 64.1478C11.618 66.3544 10.4847 68.6472 10.3254 71.1828C9.99372 76.5231 11.0174 81.7302 12.3857 86.8589C12.6417 87.8173 13.446 88.6294 13.997 89.5068V89.5095ZM132.989 140.671C133.943 140.671 134.535 140.805 135.037 140.651C138.301 139.65 141.805 139.397 144.777 137.473C146.193 136.556 147.793 135.887 149.099 134.846C150.089 134.057 150.809 132.895 151.535 131.822C154.024 128.137 154.865 124.074 151.635 120.149C148.992 116.937 146.148 113.892 143.37 110.792C142.792 110.15 142.181 109.51 141.482 109.016C140.615 108.405 139.847 108.695 139.453 109.552C138.969 110.607 138.424 111.633 137.904 112.67C137.457 113.565 136.917 114.44 137.531 115.485C138.849 117.733 139.481 120.211 139.818 122.763C140.267 126.173 139.552 129.505 138.233 132.55C137.209 134.916 135.342 136.914 133.864 139.086C133.59 139.489 133.389 139.94 132.992 140.671H132.989ZM84.6007 134.039C84.0575 134.574 83.7467 134.96 83.3603 135.242C82.4802 135.88 81.5297 136.425 80.6758 137.094C80.3911 137.318 80.1195 137.843 80.19 138.152C80.2501 138.41 80.8455 138.76 81.1484 138.71C82.1172 138.554 83.0834 138.3 84.0079 137.963C86.9718 136.875 90.014 135.934 92.8343 134.548C95.7826 133.098 98.6002 131.333 101.308 129.461C106.406 125.938 111.712 122.666 115.987 118.067C117.136 116.83 118.509 115.798 119.637 114.545C121.753 112.194 123.745 109.735 125.829 107.358C126.419 106.684 126.537 106.066 125.957 105.397C124.886 104.164 123.803 102.945 122.685 101.757C121.539 100.537 120.51 100.621 119.776 102.162C118.238 105.397 116.008 108.149 113.958 111.043C111.414 114.631 108.97 118.305 105.505 121.081C102.972 123.11 100.363 125.076 97.6105 126.784C95.0018 128.403 92.1684 129.662 89.416 131.046C88.7684 131.372 88.0477 131.775 87.3661 131.764C85.6139 131.735 84.1176 132.271 82.475 133.352L84.6033 134.041L84.6007 134.039ZM51.0106 33.6235C51.5563 33.5712 52.0159 33.5634 52.4599 33.4772C57.7557 32.4536 63.0594 31.5526 68.4911 31.9078C68.9664 31.9391 69.4495 31.8477 69.9247 31.8869C70.9876 31.9705 71.7475 31.4821 72.4082 30.717C74.1317 28.7193 75.816 26.6824 77.6152 24.7552C79.9785 22.2222 82.441 19.7806 84.8461 17.2841C85.089 17.0308 85.2143 16.6652 85.3945 16.3492C85.0446 16.2291 84.6868 15.9836 84.35 16.0097C82.7492 16.1299 81.1563 16.3205 79.5581 16.4902C73.7269 17.1065 68.3214 19.0076 63.2501 21.9167C59.6438 23.9849 56.5075 26.6511 53.5828 29.568C52.6192 30.529 51.8906 31.7276 51.0837 32.8374C50.9792 32.9811 51.0393 33.2422 51.0106 33.6261V33.6235ZM135.473 124.241C135.274 123.042 135.112 121.838 134.854 120.653C134.763 120.227 134.457 119.54 134.214 119.525C133.791 119.496 133.227 119.794 132.914 120.133C130.906 122.327 129.004 124.619 126.96 126.776C124.965 128.884 122.949 130.994 120.75 132.882C117.465 135.705 114.141 138.509 110.315 140.624C109.842 140.886 109.571 141.505 109.205 141.959C109.722 142.217 110.229 142.677 110.759 142.701C112.971 142.805 115.198 142.92 117.4 142.768C120.222 142.575 123.293 142.972 125.362 140.282C125.411 140.22 125.508 140.191 125.589 140.154C127.753 139.147 129.621 137.599 131.013 135.66C131.621 134.83 132 133.827 132.629 133.015C134.637 130.422 135.46 127.489 135.47 124.238L135.473 124.241ZM141.688 68.7621C141.234 66.9289 140.847 64.8424 140.186 62.8499C139.424 60.5545 138.432 58.3323 137.497 56.0943C137.332 55.7 136.964 55.3919 136.69 55.0445C136.408 55.3892 136.016 55.6922 135.859 56.0865C135.3 57.494 134.924 58.9825 134.29 60.3509C133.07 62.9831 131.692 65.5423 130.43 68.1563C129.08 70.9583 128.984 70.5091 131.268 72.8411C133.533 75.1547 135.504 77.7504 137.677 80.1581C138.04 80.5603 138.815 80.8684 139.314 80.7718C139.651 80.7065 139.957 79.8813 140.064 79.3538C140.278 78.2962 140.314 77.202 140.481 76.134C140.847 73.7812 141.249 71.4335 141.688 68.7595V68.7621ZM9.75348 131.362C10.5578 129.187 11.2341 127.27 11.9784 125.379C12.4924 124.093 13.0525 122.826 13.6575 121.58C14.2607 120.318 14.9423 119.096 15.5638 117.845C16.0573 116.853 16.4386 115.796 17.0053 114.848C17.7312 113.639 18.1752 112.463 17.679 111.038C17.41 110.265 17.3735 109.416 17.1411 108.627C16.6501 106.969 16.201 105.282 15.5324 103.694C15.1198 102.713 14.3312 101.89 13.54 100.749C12.767 102.444 11.9601 103.76 11.5579 105.188C10.7797 107.961 10.247 110.803 9.57591 113.607C8.84994 116.642 8.22582 119.71 7.29356 122.682C6.36653 125.635 7.77928 128.019 8.74288 130.542C8.85778 130.84 9.30171 131.009 9.75348 131.365V131.362ZM25.5262 43.612C26.038 43.612 26.2521 43.6355 26.461 43.6093C29.8088 43.1576 33.154 42.7006 36.5018 42.2462C37.6795 42.0869 38.3898 41.3583 38.6927 40.2772C40.2517 34.7202 43.1164 29.7612 45.7251 24.6821C45.8949 24.3531 45.8139 23.8987 45.8505 23.5018C45.4901 23.5618 45.0619 23.5122 44.7824 23.695C41.4373 25.8755 38.1104 28.0795 35.2405 30.8946C31.7667 34.2931 28.6659 38.0531 25.991 42.1104C25.7507 42.4734 25.7168 42.9722 25.5288 43.612H25.5262ZM7.18389 84.1065L6.72428 84.0804C5.69126 85.7169 5.10762 87.5966 5.03212 89.5303C4.98511 90.6558 4.98772 91.8205 4.68741 92.8886C3.20677 98.14 3.90923 103.459 4.06591 108.763C4.09202 109.627 4.23826 110.489 4.37927 111.346C4.56207 112.453 4.79187 113.552 5.00078 114.657L5.47344 114.649C5.95132 113.32 6.40048 111.98 6.91492 110.667C7.24395 109.829 7.4633 108.651 8.1057 108.293C9.26254 107.651 9.39833 106.651 9.75609 105.661C9.90233 105.259 10.0877 104.872 10.2314 104.47C10.879 102.642 11.5632 100.825 12.1298 98.9731C12.2839 98.4743 12.1977 97.8136 12.0045 97.3122C11.2367 95.338 10.3515 93.4108 9.56807 91.4445C8.94817 89.8829 8.37256 88.3042 7.84195 86.7101C7.55731 85.864 7.40063 84.9761 7.1865 84.1091L7.18389 84.1065ZM60.5447 11.6514L60.7379 11.8968C61.0643 11.8342 61.3934 11.7845 61.7172 11.7088C64.843 10.9724 67.9427 10.0924 71.0999 9.53614C74.21 8.98775 77.388 8.83891 80.5139 8.37669C84.4544 7.79436 88.3845 8.09205 92.3251 8.26179C94.7197 8.36364 97.1535 9.2515 99.4829 7.96671C99.8955 7.73952 100.219 7.35042 100.585 7.03706C100.225 6.71325 99.9137 6.20925 99.4959 6.09435C97.4935 5.54586 95.4777 5.04693 93.4506 4.59804C88.3871 3.44642 83.261 3.42292 78.161 4.1541C74.4816 4.6816 70.7813 5.33183 67.4257 7.1154C65.5858 8.0731 63.7729 9.08148 61.9888 10.1394C61.4143 10.4867 61.0226 11.1395 60.5473 11.654L60.5447 11.6514ZM77.9808 37.3264C78.6363 38.4414 79.1925 39.4938 79.8532 40.4783C80.7123 41.7579 81.3991 43.4083 82.616 44.1395C84.9375 45.5339 87.5593 46.4479 90.1028 47.4428C91.1656 47.858 92.1632 47.7797 92.7638 46.4113C93.2574 45.2832 95.6389 44.7375 96.5216 45.4034C97.9578 46.4871 99.4359 45.9152 100.979 45.7794C99.2478 40.9014 82.0728 34.749 77.9834 37.3238L77.9808 37.3264ZM80.2658 152.329C79.9629 151.039 81.0414 151.185 81.7752 150.963C82.9686 150.603 84.209 150.36 85.3632 149.905C87.0449 149.242 88.6666 148.427 90.3196 147.693C91.15 147.325 92.0143 147.028 92.8186 146.612C93.0615 146.487 93.2704 146.08 93.2809 145.792C93.2887 145.583 92.9544 145.187 92.756 145.176C91.0403 145.077 89.2776 144.782 87.609 145.048C83.5587 145.688 79.5738 146.772 75.5157 147.338C72.7424 147.727 69.8882 147.524 67.0705 147.639C66.4829 147.662 65.8614 147.816 65.3339 148.075C64.5401 148.461 64.48 149.067 65.2687 149.54C66.0756 150.025 66.9112 150.516 67.7991 150.809C69.6872 151.446 71.6033 151.996 73.5415 152.459C75.1553 152.833 76.8005 153.365 78.4535 152.368C78.853 152.125 79.5268 152.331 80.271 152.331L80.2658 152.329ZM44.6989 81.1531C44.7929 84.7176 45.9236 87.5901 46.8741 90.4992C47.0465 91.0293 47.2894 91.5698 47.6314 92.0007C47.8665 92.2958 48.3287 92.4107 48.6891 92.6065C48.8588 92.2853 49.1173 91.9824 49.1852 91.6403C50.0156 87.4386 50.8017 83.2317 51.6347 79.03C51.988 77.244 52.3886 75.4676 52.8359 73.7028C53.0135 73.0004 53.5227 72.3606 53.6037 71.6607C53.7107 70.7311 53.5462 69.7675 53.4992 68.8195C52.6845 69.2269 51.7182 69.4776 51.0889 70.0782C49.825 71.2847 48.7439 72.6844 47.5844 74.0005C45.6729 76.1706 45.101 78.8342 44.7015 81.1531H44.6989ZM47.2215 30.4611L47.9135 30.8893C48.6629 30.2287 49.5247 29.6594 50.1384 28.8916C51.6007 27.0689 52.8934 25.1182 55.0504 23.964C55.6745 23.6297 56.074 22.9038 56.6459 22.4468C58.5183 20.9452 60.2679 19.1878 62.357 18.0884C64.8247 16.7905 67.5745 16.0045 70.2485 15.1349C72.5074 14.3985 74.8367 13.8736 77.1243 13.226C77.5708 13.1007 77.9782 12.8395 78.4039 12.6437L78.2994 12.2833C77.8346 12.2833 77.3593 12.2285 76.9049 12.2911C73.7713 12.7351 70.5828 12.9727 67.5223 13.7222C63.6966 14.657 59.9493 15.9392 56.2229 17.2345C54.5359 17.8194 53.0709 18.6812 52.2222 20.6162C51.0654 23.2537 49.3497 25.6431 47.9474 28.1787C47.5688 28.8629 47.4565 29.6959 47.2215 30.4611ZM38.6797 102.686L38.1156 102.765C38.1156 103.99 37.9432 105.243 38.1495 106.431C38.6327 109.204 39.2672 111.952 39.9018 114.696C40.3431 116.6 40.8967 118.477 41.3798 120.371C41.8655 122.277 42.7142 123.938 44.5056 124.93C46.8794 126.246 49.2531 127.565 51.6712 128.792C52.3006 129.114 53.0944 129.147 53.823 129.221C54.0528 129.244 54.4628 128.999 54.5229 128.798C54.6064 128.518 54.5385 128.072 54.3505 127.863C54.0737 127.555 53.6559 127.338 53.2616 127.173C51.2195 126.327 49.509 125.048 48.0153 123.426C44.5448 119.658 41.9726 115.383 40.6591 110.411C40.1159 108.353 39.7347 106.254 39.2463 104.18C39.1262 103.666 38.8729 103.183 38.6797 102.686ZM86.5827 154.225C87.2329 154.295 87.6534 154.426 88.0477 154.368C89.4918 154.157 90.9306 153.893 92.3669 153.629C94.3228 153.269 96.2892 152.934 98.2268 152.493C99.1617 152.279 100.146 152.115 100.757 151.12C101.011 150.704 101.679 150.401 102.199 150.326C102.998 150.206 103.478 149.905 103.914 149.19C104.651 147.986 105.902 148.13 106.709 149.299C106.933 149.626 107.609 149.968 107.92 149.858C109.381 149.317 110.815 148.707 112.219 148.03C112.514 147.895 112.702 147.532 113.059 147.145C112.629 147.007 112.438 146.9 112.239 146.892C109.464 146.764 106.688 146.652 103.912 146.526C103.483 146.508 102.99 146.568 102.64 146.38C101.588 145.813 100.893 146.315 100.063 146.91C99.0912 147.607 97.9683 148.09 96.9054 148.654C96.6051 148.814 96.2813 148.936 95.9706 149.08C94.3776 149.824 92.8004 150.603 91.1918 151.31C89.5936 152.015 87.9119 152.572 86.5827 154.225ZM133.19 24.8884L133.679 24.5933C132.937 19.0494 130.36 14.503 125.727 11.2414C122.627 9.06087 119.128 8.16778 114.929 8.93031C115.519 9.42385 115.82 9.70066 116.146 9.94091C120.583 13.1973 125.09 16.3675 129.422 19.7571C130.626 20.6972 132.169 21.6581 132.24 23.6193C132.256 24.0528 132.856 24.4654 133.188 24.8884H133.19ZM69.1126 90.4182C70.0475 92.6771 69.8595 95.0038 71.5177 96.7769C72.873 98.2262 73.3639 98.2706 74.6252 96.6933C75.7441 95.2671 76.9328 93.897 78.1871 92.5883C79.075 91.6769 79.1011 90.8178 78.5762 89.7628C78.1089 88.8401 77.699 87.8895 77.3489 86.9164C77.0355 86.0259 76.5158 85.4932 75.6097 85.924C73.8471 86.7406 72.1298 87.6515 70.4653 88.6529C69.8699 89.0185 69.5487 89.828 69.1126 90.4208V90.4182ZM104.337 10.4371C104.99 10.8183 105.502 11.2988 106.095 11.432C109.388 12.1789 112.172 13.9337 114.932 15.7486C116.527 16.7958 118.024 18.0649 119.745 18.8352C121.337 19.5481 122.223 20.7755 123.244 22.0028C123.69 22.5408 124.393 22.8594 124.957 23.3059C125.787 23.964 126.667 24.5777 127.401 25.335C128.205 26.1654 128.845 27.1551 129.602 28.0377C130.14 28.6645 130.796 29.1867 131.318 29.8213C132.224 30.9233 133.154 32.0018 133.261 33.5712C133.287 33.9682 133.961 34.3207 134.337 34.6915C134.608 34.258 135.081 33.8376 135.107 33.3884C135.157 32.5423 135.159 31.5814 134.81 30.8476C133.808 28.7697 132.327 26.9599 130.488 25.5674C127.472 23.2406 124.515 20.8329 121.523 18.4749C120.029 17.2998 118.585 16.0359 116.984 15.0253C114.018 13.1529 110.955 11.432 107.925 9.65888C106.949 9.08699 105.283 9.38207 104.337 10.4397V10.4371ZM101.217 49.1402L101.17 49.3048C100.52 49.3048 99.8589 49.2395 99.2217 49.3309C98.8823 49.3805 98.407 49.6442 98.3182 49.9184C98.2399 50.1639 98.5245 50.6548 98.7882 50.8611C99.6709 51.5558 100.674 52.1041 101.525 52.8353C103.784 54.7704 106.288 56.5278 108.113 58.8206C109.633 60.7269 111.61 61.0324 113.543 61.7401C114.245 61.9986 114.584 61.5443 114.315 60.8966C113.973 60.0591 113.545 59.2592 113.039 58.5098C112.083 57.1206 110.989 55.8227 110.043 54.4257C108.881 52.7074 108.194 50.5556 105.771 50.0751C104.249 49.7748 102.731 49.451 101.212 49.1402H101.217ZM35.6583 75.1861C35.7628 75.8911 35.7915 76.51 35.9612 77.0871C36.0578 77.4136 36.3425 77.7948 36.6376 77.9071C36.8308 77.9802 37.293 77.6825 37.4575 77.4345C38.1522 76.3873 38.7815 75.2984 39.4291 74.2225C39.9201 73.4051 40.2282 72.3736 40.9228 71.8069C42.4714 70.5378 42.8552 68.8404 43.3175 67.0647C43.5629 66.1194 44.046 64.8163 44.7772 64.5056C46.015 63.9781 46.2213 63.1059 46.3701 62.1031C46.4093 61.8367 45.9079 61.2204 45.6651 61.2257C44.456 61.2466 43.213 61.2857 42.0588 61.5991C41.432 61.7688 40.7191 62.3903 40.4476 62.9883C39.0051 66.225 37.6226 69.488 36.3007 72.7758C35.9769 73.5696 35.8542 74.4418 35.6635 75.1887L35.6583 75.1861ZM47.3259 58.2304C48.9189 58.3532 50.4596 58.3688 51.5537 56.883C53.3007 54.5144 55.1026 52.1877 56.8104 49.7905C57.0559 49.4458 57.0585 48.7381 56.8679 48.3464C56.7504 48.1061 56.0453 48.0513 55.617 48.0878C55.1104 48.1296 54.6195 48.3568 54.1233 48.5057C51.713 49.2264 49.9242 50.9342 48.125 52.5272C46.8167 53.684 45.7643 55.1621 44.7433 56.6009C43.9364 57.7343 44.2654 58.22 45.6337 58.2304C46.1978 58.2356 46.7619 58.2304 47.3259 58.2304ZM115.801 124.191L115.882 124.75C116.783 124.75 117.909 125.097 118.549 124.687C120.706 123.317 122.752 121.78 124.67 120.091C126.135 118.791 127.038 116.911 128.871 115.931C129.336 115.683 129.652 115.124 129.989 114.675C130.507 114.017 130.76 113.19 130.7 112.355C130.64 111.519 130.27 110.737 129.663 110.16C129.14 109.638 128.678 109.719 128.255 110.299C127.793 110.928 127.341 111.565 126.84 112.163C125.555 113.688 124.254 115.2 122.946 116.704C121.643 118.198 120.358 119.71 118.998 121.149C117.987 122.217 116.869 123.18 115.799 124.191H115.801ZM21.3924 104.17L21.7815 104.044C21.8624 103.77 22.0139 103.493 22.0165 103.219C22.0322 101.791 22.0113 100.365 22.0008 98.9365C21.9721 95.2493 21.8807 91.5594 21.9434 87.8721C21.9721 86.1434 22.3246 84.4225 22.4656 82.6938C22.4944 82.3412 22.228 81.9626 22.0948 81.597C21.7345 81.7824 21.3114 81.9051 21.032 82.1741C20.7566 82.4561 20.5642 82.8084 20.4758 83.1925C20.0318 85.044 19.4939 86.885 19.2458 88.7652C18.6113 93.5884 19.9666 98.2523 20.6116 102.968C20.669 103.397 21.1234 103.77 21.3924 104.17ZM41.6801 136.117L42.0118 135.741C41.701 135.323 41.4451 134.848 41.0717 134.498C39.9958 133.49 38.8598 132.548 37.7709 131.553C35.1125 129.121 33.4778 126.032 32.2452 122.718C31.7047 121.266 30.668 120.358 29.4249 119.6C28.4979 119.034 28.067 119.295 28.0958 120.392C28.1062 120.731 28.242 121.063 28.3099 121.402C28.8243 123.993 30.2763 126.074 31.9266 128.038C32.65 128.897 33.4151 129.727 34.2299 130.498C35.3632 131.571 36.507 132.649 37.75 133.584C38.9904 134.519 40.364 135.279 41.6775 136.117H41.6801ZM65.3366 38.619C64.4931 38.619 64.0204 38.525 63.6052 38.6347C60.9703 39.3319 58.3224 40.0004 55.7345 40.8413C54.643 41.1964 53.6402 41.8832 52.674 42.5335C51.888 43.0636 51.9141 44.035 52.6557 44.1212C54.0946 44.2857 55.5779 44.398 57.0063 44.2282C58.4556 44.0559 59.8788 43.5597 61.2811 43.1132C61.8313 42.918 62.3302 42.6011 62.7408 42.1861C63.2605 41.6821 63.6757 41.0633 64.1066 40.4731C64.4696 39.9743 64.7934 39.4468 65.3392 38.619H65.3366ZM10.4272 144.659C10.1034 145.312 9.71692 145.774 9.65425 146.278C9.54022 147.268 9.51749 148.266 9.58635 149.26C9.86315 153.734 12.955 155.366 16.9478 155.17C17.3134 155.152 17.6633 154.825 18.0211 154.64C17.8305 154.272 17.7286 153.786 17.4309 153.553C14.4592 151.245 12.6782 147.999 10.4272 144.656V144.659ZM48.9763 45.97L48.8797 45.7846C48.3235 46.0562 47.6602 46.2155 47.2267 46.6203C45.6781 48.0696 44.2027 49.5972 42.7168 51.1118C42.4251 51.43 42.167 51.7774 41.9465 52.1485C41.0889 53.5022 40.2437 54.8637 39.4108 56.2327C39.1445 56.6714 38.8625 57.1336 38.7449 57.622C38.6692 57.9379 38.7684 58.4889 38.9852 58.6274C39.2254 58.7814 39.8052 58.7135 40.0323 58.5125C40.5076 58.0946 40.8523 57.528 41.244 57.0161C42.7377 55.0681 44.1139 53.0129 45.7539 51.198C47.023 49.7931 48.6264 48.6911 50.0626 47.4376C50.3055 47.2261 50.4648 46.9153 50.6606 46.6516C50.3577 46.4453 50.0757 46.192 49.7467 46.0458C49.5221 45.9465 49.2348 45.9909 48.9737 45.9726L48.9763 45.97ZM57.1238 36.4907C57.1238 36.4907 56.9332 36.3602 56.753 36.3654C52.5408 36.4333 48.6682 37.7442 45.0253 39.7393C44.0695 40.2616 43.495 41.2539 43.8188 42.4786C45.6207 43.0296 47.0178 42.7815 48.629 41.5751C51.2378 39.6244 54.2304 38.1829 57.1238 36.4907ZM35.8254 137.815L35.3737 138.313C35.6008 138.789 35.7549 139.324 36.0735 139.729C37.3557 141.361 38.7345 142.92 39.9932 144.573C41.2806 146.262 41.5913 146.385 43.4532 145.377C43.9931 145.099 44.5124 144.782 45.007 144.429C45.9158 143.756 45.8061 143.304 44.7877 142.766C43.3096 141.985 41.8812 141.11 40.4188 140.298C38.8964 139.455 37.3583 138.64 35.8254 137.815ZM126.74 81.0695C126.725 81.2471 126.709 81.6832 126.646 82.1114C126.385 83.9159 126.085 85.7177 125.868 87.5274C125.824 87.8904 126.09 88.2899 126.213 88.6712C126.581 88.4336 126.965 88.2116 127.312 87.9452C127.432 87.8512 127.432 87.6162 127.537 87.483C128.453 86.3027 129.279 85.0257 130.339 83.989C131.219 83.1273 131.624 82.114 131.386 81.0852C131.242 80.461 130.341 79.9832 129.73 79.5079C129.472 79.3068 129.083 79.2676 128.749 79.1762C127.041 78.7062 126.657 79.0196 126.743 81.0721L126.74 81.0695ZM90.834 96.0457C90.9646 96.0196 91.1474 96.0144 91.3014 95.9465C93.764 94.881 95.4953 92.9356 97.1509 90.9353C97.3233 90.7263 97.0465 89.8306 96.7227 89.58C95.6755 88.76 94.3594 89.1465 93.3148 90.3399C92.722 91.0162 92.0326 91.609 91.3667 92.2148C90.7661 92.7632 90.0976 93.2411 89.5335 93.8208C89.0922 94.2726 88.7606 94.834 88.3793 95.3459C89.0557 95.5574 89.732 95.7741 90.411 95.9804C90.5337 96.017 90.6669 96.0222 90.8366 96.0457H90.834ZM64.7255 154.248L64.8456 153.692C63.1247 152.757 61.4169 151.801 59.6829 150.895C58.5339 150.294 57.3666 149.864 56.2438 151.026C56.0662 151.208 55.6719 151.172 55.3872 151.268C54.7318 151.488 54.0633 151.681 53.4444 151.979C53.2302 152.081 53.05 152.449 53.0396 152.705C53.0318 152.864 53.3451 153.141 53.554 153.188C54.6874 153.438 55.8259 153.671 56.9749 153.841C58.1657 154.018 59.367 154.175 60.5682 154.232C61.9496 154.3 63.3362 154.248 64.7203 154.248H64.7255ZM54.7292 147.727C53.3765 146.134 51.9977 145.006 50.1122 145.722C48.5585 146.309 47.1405 147.273 45.7042 148.135C45.0253 148.542 44.9391 149.138 45.5554 149.746C46.6417 150.822 47.4043 150.89 48.817 150.253C50.3029 149.581 51.8488 149.046 53.3608 148.43C53.7812 148.258 54.1729 148.017 54.7318 147.727H54.7292ZM47.9761 108.199C48.8483 103.976 48.3156 100.242 44.866 97.3801C43.5107 98.994 45.8557 107.559 47.9761 108.199ZM131.185 99.4797C130.853 98.8608 130.704 98.4534 130.449 98.1296C129.965 97.5185 129.425 96.9545 128.905 96.3748C128.085 95.4582 127.354 95.3955 126.443 96.1606C125.012 97.3592 124.784 98.1609 125.659 99.1872C126.135 99.7434 126.766 100.174 127.205 100.754C127.701 101.407 128.268 102.232 129.057 101.746C129.905 101.224 130.482 100.258 131.185 99.4797ZM131.668 105.836C132.501 106.969 133.167 107.922 133.903 108.818C134.01 108.949 134.624 108.909 134.731 108.758C135.502 107.672 136.322 106.59 136.886 105.394C137.377 104.347 136.225 103.846 135.752 103.117C135.186 102.245 134.35 102.18 133.773 102.78C132.969 103.619 132.423 104.705 131.668 105.836ZM67.9479 49.417C68.5564 49.2995 68.9846 49.2342 69.4025 49.1298C71.536 48.6049 73.6721 48.0905 75.7925 47.5212C76.1476 47.4246 76.4375 47.0825 76.7561 46.8553C76.4245 46.6359 76.1032 46.2494 75.7585 46.2207C74.1238 46.0954 72.4708 46.1528 70.8413 45.9779C69.1648 45.7977 67.9714 46.2964 67.3186 47.8868C67.1776 48.2289 66.8929 48.712 67.0183 48.9157C67.1985 49.2055 67.6998 49.2943 67.9453 49.4144L67.9479 49.417ZM131.06 93.027C131.699 93.638 132.099 94.2909 132.639 94.4423C133.021 94.5494 133.794 94.1055 134.047 93.6929C135.402 91.5072 135.679 88.7469 137.669 86.8876C137.698 86.8589 137.729 86.8093 137.726 86.7727C137.679 86.3027 137.625 85.8353 137.572 85.3652C137.225 85.6055 136.737 85.7647 136.554 86.0964C135.705 87.6293 134.736 88.9846 133.279 90.0631C132.402 90.7133 131.898 91.8675 131.062 93.0244L131.06 93.027ZM93.8475 80.7979C93.5237 81.9286 94.3385 82.6964 95.3543 82.9575C96.1168 83.1508 97.0439 82.8191 97.8664 82.6024C98.2555 82.5005 98.5689 82.1219 98.9214 81.879C99.8615 81.234 99.8302 80.3984 98.8144 79.9231C97.9955 79.5336 97.159 79.1824 96.3074 78.8707C94.4586 78.2074 93.8554 78.6514 93.8449 80.7979H93.8475ZM140.659 93.8052L140.121 92.6927C139.74 93.0296 139.251 93.2986 139.001 93.7138C138.337 94.8311 137.728 95.9807 137.178 97.1582C136.734 98.1009 136.815 99.1036 137.588 99.8087C137.964 100.153 138.706 100.315 139.218 100.219C139.57 100.153 139.998 99.5293 140.066 99.1036C140.322 97.4741 140.445 95.8238 140.659 93.8026V93.8052ZM98.7465 141.202C100.018 141.74 101.086 141.742 101.966 141.215C104.401 139.739 106.799 138.203 109.158 136.608C110.124 135.963 110.996 135.182 111.9 134.443C112.114 134.268 112.271 134.026 112.454 133.814L112.237 133.592L98.7465 141.199V141.202ZM87.9876 77.1002C86.6898 77.0819 85.8358 77.0924 85.7758 78.3667C85.6948 80.0432 85.8646 80.2913 87.3948 80.4898C88.1678 80.5916 88.9355 80.7352 89.7007 80.8789C90.5441 81.0382 91.3354 80.9859 91.5678 79.9988C91.7976 79.0248 91.5312 78.1369 90.4997 77.7713C89.5675 77.4397 88.5856 77.2543 87.9876 77.1002ZM31.4253 156.478L31.454 156.768C31.9998 156.713 32.5769 156.755 33.0835 156.585C35.6688 155.723 38.2371 154.81 40.787 153.848C41.4268 153.606 42.5471 153.415 42.1449 152.342C41.7585 151.31 40.774 151.699 39.9827 151.869C39.6929 151.932 39.4213 152.094 39.1549 152.235C38.3129 152.675 37.4755 153.124 36.6428 153.582C34.901 154.543 33.1644 155.512 31.4253 156.478ZM32.6839 96.8918C30.869 98.5161 31.3574 106.643 33.1253 107.672C34.2952 104.057 33.2428 100.634 32.6839 96.8918ZM75.5862 81.2967C75.5 80.0276 75.0744 79.4269 74.2231 79.816C72.6416 80.5304 71.1127 81.356 69.6479 82.2864C69.3058 82.5057 69.2092 83.3701 69.3006 83.8846C69.3398 84.1039 70.2146 84.4121 70.5933 84.2972C71.7919 83.9289 72.9983 83.4902 74.0768 82.8661C74.761 82.4692 75.2258 81.6884 75.5888 81.2993L75.5862 81.2967ZM70.4105 60.0976C70.4914 60.0976 70.7395 60.1733 70.8257 60.0845C71.5177 59.3925 72.6223 58.7344 72.7398 57.9432C72.8886 56.9221 71.6169 56.93 70.8361 57.0266C69.3006 57.2146 67.7756 57.5097 66.2714 57.8648C65.9711 57.9353 65.6421 58.4446 65.5899 58.7919C65.5611 58.9825 66.0521 59.4055 66.3576 59.4682C67.6685 59.7267 68.9977 59.8886 70.4105 60.1002V60.0976ZM99.5925 94.6434C99.475 94.1577 99.6604 92.9121 98.7752 93.4866C97.2945 94.445 95.6964 95.5705 95.2994 97.5029C95.2081 97.9442 95.6546 98.6597 96.0646 98.9809C96.344 99.2029 97.1744 99.1506 97.4382 98.8921C98.6002 97.7562 99.5299 96.4427 99.5925 94.646V94.6434ZM112.939 73.7733L113.388 73.4234C113.195 72.8828 113.091 72.2822 112.79 71.8096C111.371 69.5806 109.917 67.3746 108.427 65.1923C108.001 64.5708 107.442 63.9467 106.429 64.7301C106.834 65.2028 107.231 65.5919 107.536 66.0437C108.301 67.1822 109.054 68.3312 109.756 69.5063C110.393 70.5744 110.9 71.7286 111.587 72.7627C111.879 73.2066 112.482 73.4443 112.944 73.7759L112.939 73.7733ZM5.84425 143.393C6.22029 141.941 6.49971 140.549 6.94625 139.212C7.52859 137.459 6.44748 136.29 5.78158 134.9C4.42105 135.974 4.47328 141.883 5.84686 143.393H5.84425ZM87.2277 83.5999C86.5383 83.9681 85.5486 84.177 85.2457 84.7515C84.9297 85.3521 85.0864 86.3967 85.4232 87.0469C85.5538 87.2976 86.7446 87.0182 87.4497 86.9451C87.6533 86.9242 87.857 86.7962 88.0424 86.6866C88.7658 86.2531 90.0819 86.3001 89.8469 85.0257C89.5988 83.6809 88.3454 84.0125 87.2303 83.5999H87.2277ZM36.836 89.4337L39.2646 81.7876C36.0892 82.6755 35.277 85.4827 36.836 89.4337ZM88.7005 104.559L88.7893 104.809C89.7503 104.465 90.74 104.188 91.6566 103.752C92.2076 103.491 92.487 102.948 91.8968 102.381C90.9515 101.472 89.907 101.451 88.8572 102.29C88.5569 102.53 88.2096 102.715 87.8936 102.937C87.4758 103.232 87.0632 103.54 86.6506 103.843C87.1598 104.073 87.6638 104.316 88.1809 104.525C88.3323 104.588 88.5255 104.548 88.6979 104.556L88.7005 104.559ZM88.7162 119.075C86.5696 118.856 85.3083 120.334 83.8146 121.279C83.6788 121.366 83.6031 121.864 83.6919 121.937C83.9739 122.167 84.35 122.428 84.6816 122.421C86.3999 122.374 88.1051 120.961 88.7136 119.078L88.7162 119.075ZM73.4814 51.877L73.6642 52.2765C75.0274 52.441 76.3905 52.6264 77.7562 52.7648C78.5945 52.8484 78.9288 52.3496 78.9183 51.5793C78.9053 50.775 78.3778 50.5452 77.6936 50.6104C76.7065 50.7071 75.7063 50.7828 74.7506 51.0178C74.2857 51.1301 73.9019 51.5793 73.4814 51.877ZM70.8048 121.504C69.7942 121.859 68.8149 122.183 67.8539 122.546C65.9032 123.282 65.9058 123.293 66.718 125.076C67.6972 124.617 68.6347 124.024 69.661 123.729C71.455 123.217 71.6169 122.974 70.8074 121.504H70.8048ZM58.8447 121.478C58.2571 121.778 57.7766 121.94 57.4215 122.251C57.304 122.353 57.4345 123.045 57.5964 123.11C58.7298 123.57 59.8788 124.076 61.0722 124.277C61.7903 124.4 62.1899 123.447 61.6493 123.071C60.7823 122.468 59.8109 122.016 58.8421 121.478H58.8447ZM63.0699 131.965L63.0229 131.409C62.5398 131.153 62.0802 130.806 61.5657 130.662C60.8942 130.492 60.2057 130.398 59.5132 130.38C59.1789 130.362 58.8368 130.526 58.4974 130.607C58.654 131.009 58.6984 131.61 58.9883 131.777C59.7717 132.226 60.6387 132.647 61.5135 132.767C61.9862 132.832 62.5476 132.255 63.0673 131.968L63.0699 131.965ZM85.4546 50.0647C84.8775 50.6783 84.1959 51.0674 84.1437 51.5296C84.0575 52.3 84.2821 53.5143 85.277 53.3158C86.0761 53.1565 86.708 52.1511 87.4157 51.5218L85.4546 50.0647ZM69.3476 100.741C68.5799 99.6207 67.8905 98.5788 67.1541 97.5708C66.9765 97.3279 66.6292 97.2104 66.3576 97.0328C66.1591 97.341 65.8484 97.6256 65.7831 97.9599C65.4958 99.417 67.4831 101.12 69.3476 100.738V100.741ZM78.1819 105.535C77.2914 105.632 76.4558 105.624 75.6906 105.849C75.2911 105.966 74.9177 106.457 74.7323 106.87C74.6644 107.021 75.1292 107.531 75.4452 107.708C77.294 108.747 78.5449 107.366 78.1819 105.535ZM143.276 85.1955C141.711 86.7936 141.529 88.7626 142.813 90.1649C143.847 89.0446 144.085 86.4881 143.276 85.1955ZM114.386 20.5274C112.777 18.6629 110.667 17.6392 108.335 16.9942C109.813 19.0807 112.226 19.5899 114.386 20.5274ZM58.0064 53.8329C59.5811 53.4647 61.0226 51.7934 61.2576 50.1743C59.9258 49.9654 58.278 51.7725 58.0064 53.8329ZM80.8403 96.3199C80.6183 95.889 80.5504 95.5783 80.4277 95.5574C80.1613 95.5104 79.7435 95.5026 79.6103 95.6618C78.9797 96.417 78.398 97.2116 77.8685 98.0408C77.7589 98.2132 77.8842 98.6336 78.0357 98.8451C78.1427 98.9913 78.6154 99.0958 78.6833 99.0148C79.4432 98.1244 80.1535 97.1921 80.8403 96.3199ZM81.2477 142.789L81.1824 143.238L83.1331 142.591C82.8928 142.108 82.6421 141.63 82.4149 141.142C82.3444 140.993 82.3888 140.76 82.287 140.658C82.0023 140.374 81.6707 140.139 81.3573 139.883C81.2424 140.282 81.0361 140.682 81.0309 141.084C81.0257 141.651 81.1667 142.22 81.2477 142.789ZM119.632 24.0945L119.327 24.4628C120.92 25.5752 121.604 27.6747 123.779 28.3876C124.009 27.3144 123.583 26.8313 122.889 26.4108C122.123 25.9486 121.411 25.3976 120.682 24.878C120.327 24.6247 119.985 24.3557 119.635 24.0919L119.632 24.0945ZM82.146 79.1371C82.1956 78.3328 81.8901 77.7348 80.9421 77.7034C80.0725 77.6721 79.9916 78.2858 80.0255 78.9412C80.0621 79.6463 80.0856 80.4062 81.0544 80.4454C81.8927 80.4819 82.1982 79.9727 82.146 79.1371ZM40.6304 48.3255L40.9724 48.4743C41.4503 48.02 41.9726 47.6047 42.3852 47.1008C42.6281 46.8057 42.7482 46.3774 42.8135 45.9883C42.8317 45.8838 42.4061 45.56 42.252 45.5992C41.8237 45.7115 41.2049 45.863 41.0691 46.1763C40.7844 46.8318 40.7609 47.6021 40.6277 48.3255H40.6304ZM62.0958 146.273L62.955 145.395C62.6338 145.181 62.2865 144.756 61.9992 144.795C61.302 144.886 60.7536 144.878 60.3018 144.244C60.2235 144.134 59.6751 144.179 59.5602 144.325C59.4322 144.484 59.461 145.014 59.5863 145.085C60.3279 145.497 61.1192 145.824 62.0958 146.27V146.273ZM111.576 128.012C112.592 127.463 113.595 126.933 114.582 126.377C114.811 126.253 115.005 126.072 115.143 125.852C115.253 125.661 115.303 125.369 115.235 125.17C115.195 125.055 114.864 124.977 114.673 124.993C114.01 125.045 111.78 127.228 111.574 128.012H111.576ZM69.3529 104.444C71.6979 105.77 72.476 105.763 72.7502 104.486C71.6874 104.144 70.6481 103.347 69.3529 104.444ZM81.4331 71.5954H80.9735C80.7724 72.0028 80.4407 72.405 80.4199 72.8228C80.4068 73.0944 80.8507 73.3868 81.0884 73.6689C81.4069 73.3372 81.8953 73.0474 81.9919 72.6609C82.065 72.371 81.6367 71.9558 81.4331 71.5954ZM72.2123 131.406C71.5725 130.85 71.2409 130.346 70.8387 130.281C70.5358 130.234 70.1441 130.748 69.7889 131.012C70.165 131.291 70.5097 131.665 70.9327 131.819C71.173 131.908 71.5438 131.639 72.2123 131.406ZM129.125 75.9878L129.433 75.4315C129.174 74.6377 128.581 74.2408 127.714 74.3348C127.539 74.353 127.409 74.8074 127.26 75.0607L129.125 75.9878ZM72.7346 42.3846L75.0953 42.0712C74.9751 41.7814 74.9177 41.2983 74.7218 41.233C73.9515 40.9745 73.1994 40.9823 72.7346 42.3846ZM61.3098 117.835C60.9625 117.279 60.7797 116.728 60.3984 116.451C60.0903 116.229 59.5419 116.286 59.1084 116.323C58.9857 116.333 58.7663 116.853 58.8029 116.882C59.0771 117.106 59.3852 117.318 59.7195 117.435C60.1791 117.6 60.6674 117.678 61.3098 117.832V117.835ZM87.1859 142.573C87.6429 142.029 87.9928 141.693 88.2148 141.285C88.2566 141.209 87.6795 140.622 87.5646 140.671C87.1494 140.852 86.7576 141.168 86.4782 141.525C86.4156 141.604 86.8334 142.063 87.1885 142.575L87.1859 142.573ZM51.7757 122.089L51.9272 120.068L51.5354 119.83L50.3917 121.078L51.7757 122.086V122.089ZM30.0882 67.0647L29.6965 66.9785L28.8165 70.8877L29.2761 70.9896L30.0909 67.0673L30.0882 67.0647ZM80.3963 154.426L80.19 155.128C80.6967 155.274 81.2033 155.434 81.7203 155.535C81.749 155.541 81.8718 155.06 81.9501 154.804L80.3963 154.426ZM58.5418 140.063L59.1894 140.389C59.3826 139.961 59.5863 139.536 59.743 139.094C59.756 139.06 59.4349 138.909 59.2677 138.812L58.5418 140.063ZM101.906 111.176L101.274 111.192C101.274 111.628 101.259 112.066 101.306 112.497C101.308 112.529 101.75 112.516 101.987 112.521L101.906 111.176ZM81.9318 89.3893L82.2504 89.8385L83.483 89.1282C83.2924 88.9245 82.9712 88.525 82.932 88.5511C82.569 88.7887 82.2583 89.1021 81.9318 89.3919V89.3893Z" fill="#F2F2F2"/>
</svg>
